<?xml version="1.0" encoding="UTF-8" standalone="no"?>
<!-- Created with Inkscape (http://www.inkscape.org/) -->

<svg
   xmlns:dc="http://purl.org/dc/elements/1.1/"
   xmlns:cc="http://creativecommons.org/ns#"
   xmlns:rdf="http://www.w3.org/1999/02/22-rdf-syntax-ns#"
   xmlns:svg="http://www.w3.org/2000/svg"
   xmlns="http://www.w3.org/2000/svg"
   xmlns:sodipodi="http://sodipodi.sourceforge.net/DTD/sodipodi-0.dtd"
   xmlns:inkscape="http://www.inkscape.org/namespaces/inkscape"
   width="48mm"
   height="48mm"
   viewBox="0 0 48 48"
   version="1.1"
   id="svg8"
   inkscape:version="0.92.3 (2405546, 2018-03-11)"
   sodipodi:docname="TakeSnapshot.svg">
  <defs
     id="defs2" />
  <sodipodi:namedview
     id="base"
     pagecolor="#ffffff"
     bordercolor="#666666"
     borderopacity="1.0"
     inkscape:pageopacity="0.0"
     inkscape:pageshadow="2"
     inkscape:zoom="2.8"
     inkscape:cx="-30.86004"
     inkscape:cy="81.697783"
     inkscape:document-units="mm"
     inkscape:current-layer="layer1"
     showgrid="false"
     fit-margin-top="2"
     fit-margin-left="2"
     fit-margin-right="2"
     fit-margin-bottom="2"
     inkscape:window-width="1920"
     inkscape:window-height="1011"
     inkscape:window-x="-8"
     inkscape:window-y="-8"
     inkscape:window-maximized="1" />
  <metadata
     id="metadata5">
    <rdf:RDF>
      <cc:Work
         rdf:about="">
        <dc:format>image/svg+xml</dc:format>
        <dc:type
           rdf:resource="http://purl.org/dc/dcmitype/StillImage" />
        <dc:title />
      </cc:Work>
    </rdf:RDF>
  </metadata>
  <g
     inkscape:label="Layer 1"
     inkscape:groupmode="layer"
     id="layer1"
     transform="translate(-78.504893,-143.48427)">
    <rect
       style="opacity:1;fill:#ffffff;fill-opacity:1;fill-rule:evenodd;stroke:none;stroke-width:16.32187653;stroke-linecap:square;stroke-miterlimit:4;stroke-dasharray:none;stroke-dashoffset:0;stroke-opacity:1"
       id="rect4520"
       width="37.608631"
       height="24.568453"
       x="83.513077"
       y="160.39574" />
    <g
       id="g880"
       transform="matrix(0.94021305,0,0,0.94021305,5.7976633,8.6451584)">
      <path
         sodipodi:nodetypes="sscsscccscscscccsccccccc"
         inkscape:connector-curvature="0"
         id="path869"
         transform="scale(0.26458333)"
         d="m 379.75586,560.86328 c -20.70178,0.0478 -20.54102,2.72859 -20.54102,16.89063 0,5.88276 0.32892,12.27236 0.32892,23.44176 -9.72625,0 -20.33684,0.60902 -30.32892,0.60902 -26.21418,0 -25.23122,-0.30563 -24.81054,60.17773 0.34844,50.09843 0.0409,48.07455 7.88086,52.07227 6.11211,3.11663 149.31133,2.63357 154.03125,-0.51953 6.96737,-4.65442 6.89452,-4.08504 6.89648,-54.0293 0.002,-58.2793 1.50262,-56.91161 -24.82617,-57.70117 -10.71852,-0.32143 -23.36245,-0.0957 -31.01824,-0.30903 0.032,-9.53651 0.0172,-18.09972 -0.16536,-21.38238 -0.99089,-17.8162 -0.0828,-18.85761 -22.81054,-19.14648 -5.48974,-0.0698 -10.34449,-0.11343 -14.63672,-0.10352 z m -53.71484,57.05274 c 1.45954,0.0665 2.91183,0.62666 4.11523,1.83007 2.93333,2.93333 2.67375,7.42994 -0.57617,9.98633 -4.04066,3.17836 -8.37034,1.88869 -10.44141,-3.11133 -1.92971,-4.65874 2.52371,-8.90448 6.90235,-8.70507 z m 63.16294,-1.68083 c 7.40268,0.0412 13.35141,1.40029 20.51814,5.03181 35.00788,17.73918 33.72274,69.13893 -8.70312,80.18945 v 0 c -48.39274,12.60469 -74.77462,-57.0381 -30.34906,-80.48776 3.92555,-2.07205 11.13136,-4.7747 18.53404,-4.7335 z"
         style="fill:#000000;stroke-width:0.99999994" />
      <circle
         r="6.6573205"
         cy="174.39636"
         cx="103.34881"
         id="path876"
         style="opacity:1;fill:#000000;fill-opacity:1;fill-rule:evenodd;stroke:none;stroke-width:0;stroke-linecap:square;stroke-miterlimit:4;stroke-dasharray:none;stroke-dashoffset:0;stroke-opacity:1" />
    </g>
  </g>
</svg>
