<?xml version="1.0" encoding="UTF-8" standalone="no"?>
<!-- Created with Inkscape (http://www.inkscape.org/) -->

<svg
   xmlns:dc="http://purl.org/dc/elements/1.1/"
   xmlns:cc="http://creativecommons.org/ns#"
   xmlns:rdf="http://www.w3.org/1999/02/22-rdf-syntax-ns#"
   xmlns:svg="http://www.w3.org/2000/svg"
   xmlns="http://www.w3.org/2000/svg"
   xmlns:xlink="http://www.w3.org/1999/xlink"
   xmlns:sodipodi="http://sodipodi.sourceforge.net/DTD/sodipodi-0.dtd"
   xmlns:inkscape="http://www.inkscape.org/namespaces/inkscape"
   width="48mm"
   height="48mm"
   viewBox="0 0 48 48"
   version="1.1"
   id="svg8"
   inkscape:version="0.92.3 (2405546, 2018-03-11)"
   sodipodi:docname="SaveView.svg">
  <defs
     id="defs2">
    <linearGradient
       id="linearGradient3253">
      <stop
         id="stop3255"
         offset="0"
         style="stop-color:#89d5f8;stop-opacity:1;" />
      <stop
         id="stop3257"
         offset="1"
         style="stop-color:#00899e;stop-opacity:1;" />
    </linearGradient>
    <radialGradient
       r="27.986705"
       fy="17.013988"
       fx="18.417862"
       cy="17.013988"
       cx="18.417862"
       gradientTransform="matrix(0.9724373,-0.105657,0.05052317,0.4650009,-0.3519546,9.5854384)"
       gradientUnits="userSpaceOnUse"
       id="radialGradient3270"
       xlink:href="#linearGradient3253"
       inkscape:collect="always" />
    <linearGradient
       id="linearGradient6816"
       inkscape:collect="always">
      <stop
         id="stop6818"
         offset="0"
         style="stop-color:#000000;stop-opacity:1;" />
      <stop
         id="stop6820"
         offset="1"
         style="stop-color:#000000;stop-opacity:0;" />
    </linearGradient>
    <linearGradient
       id="linearGradient6781">
      <stop
         id="stop6783"
         offset="0"
         style="stop-color:#ffffff;stop-opacity:1;" />
      <stop
         id="stop6785"
         offset="1"
         style="stop-color:#3465a4;stop-opacity:0;" />
    </linearGradient>
    <inkscape:perspective
       id="perspective6256"
       inkscape:persp3d-origin="32 : 21.333333 : 1"
       inkscape:vp_z="64 : 32 : 1"
       inkscape:vp_y="0 : 1000 : 0"
       inkscape:vp_x="0 : 32 : 1"
       sodipodi:type="inkscape:persp3d" />
    <linearGradient
       gradientTransform="matrix(-0.1723565,0.9850346,0.9850346,0.1723565,-9.8385315,6.3516142)"
       gradientUnits="userSpaceOnUse"
       y2="36.600822"
       x2="1.7074128"
       y1="15.743738"
       x1="8.2986603"
       id="linearGradient6787"
       xlink:href="#linearGradient6781"
       inkscape:collect="always" />
    <radialGradient
       gradientUnits="userSpaceOnUse"
       gradientTransform="matrix(1.1581633,0,0,0.6558985,59.798539,15.944259)"
       r="25.198714"
       fy="51.929391"
       fx="33.369828"
       cy="51.929391"
       cx="33.369828"
       id="radialGradient6822"
       xlink:href="#linearGradient6816"
       inkscape:collect="always" />
    <linearGradient
       id="linearGradient890">
      <stop
         style="stop-color:#2f55a0;stop-opacity:1;"
         offset="0"
         id="stop886" />
      <stop
         style="stop-color:#2f55a0;stop-opacity:0;"
         offset="1"
         id="stop888" />
    </linearGradient>
    <linearGradient
       gradientTransform="matrix(0.87312915,0,0,0.87312915,32.478937,32.478937)"
       xlink:href="#linearGradient890"
       id="linearGradient892"
       x1="13.172225"
       y1="384.81839"
       x2="23.020723"
       y2="-928.33887"
       gradientUnits="userSpaceOnUse" />
  </defs>
  <sodipodi:namedview
     id="base"
     pagecolor="#ffffff"
     bordercolor="#666666"
     borderopacity="1.0"
     inkscape:pageopacity="0.0"
     inkscape:pageshadow="2"
     inkscape:zoom="1.4"
     inkscape:cx="155.14505"
     inkscape:cy="107.91345"
     inkscape:document-units="mm"
     inkscape:current-layer="layer1"
     showgrid="false"
     fit-margin-top="2"
     fit-margin-left="2"
     fit-margin-right="2"
     fit-margin-bottom="2"
     inkscape:window-width="1920"
     inkscape:window-height="1057"
     inkscape:window-x="1912"
     inkscape:window-y="-8"
     inkscape:window-maximized="1" />
  <metadata
     id="metadata5">
    <rdf:RDF>
      <cc:Work
         rdf:about="">
        <dc:format>image/svg+xml</dc:format>
        <dc:type
           rdf:resource="http://purl.org/dc/dcmitype/StillImage" />
        <dc:title></dc:title>
      </cc:Work>
    </rdf:RDF>
  </metadata>
  <g
     inkscape:label="Layer 1"
     inkscape:groupmode="layer"
     id="layer1"
     transform="translate(-78.504893,-143.48427)">
    <g
       inkscape:label="Layer 1"
       id="layer1-4"
       transform="matrix(0.55376106,0,0,0.55376106,77.759674,143.93463)">
      <path
         sodipodi:nodetypes="ccccc"
         id="rect6767"
         d="M 4.2150054,18.770011 41.32972,26.150412 V 62.461455 L 5.8979826,53.093036 Z"
         inkscape:transform-center-y="-8.1252637"
         style="color:#000000;display:inline;overflow:visible;visibility:visible;opacity:1;fill:#ffffff;fill-opacity:1;fill-rule:nonzero;stroke:#004c5b;stroke-width:2.16146827;stroke-linecap:butt;stroke-linejoin:bevel;stroke-miterlimit:4;stroke-dasharray:none;stroke-dashoffset:0;stroke-opacity:1;marker:none;marker-start:none;marker-mid:none;marker-end:none;enable-background:accumulate"
         inkscape:connector-curvature="0" />
      <path
         sodipodi:nodetypes="ccccc"
         id="rect6769"
         d="M 40.916387,26.084077 58.10218,6.7433231 58.465817,43.187625 41.461842,62.528379 Z"
         style="color:#000000;display:inline;overflow:visible;visibility:visible;opacity:1;fill:#ffffff;fill-opacity:1;fill-rule:nonzero;stroke:#004c5b;stroke-width:2.16146827;stroke-linecap:butt;stroke-linejoin:bevel;stroke-miterlimit:4;stroke-dasharray:none;stroke-dashoffset:0;stroke-opacity:1;marker:none;marker-start:none;marker-mid:none;marker-end:none;enable-background:accumulate"
         inkscape:connector-curvature="0" />
      <path
         sodipodi:nodetypes="ccccc"
         id="rect6771"
         d="M 27.237743,1.3658077 58.03249,6.7448923 40.740767,26.255769 4.2590793,18.882035 Z"
         style="color:#000000;display:inline;overflow:visible;visibility:visible;opacity:1;fill:#ffffff;fill-opacity:1;fill-rule:nonzero;stroke:#004c5b;stroke-width:2.16146827;stroke-linecap:butt;stroke-linejoin:bevel;stroke-miterlimit:4;stroke-dasharray:none;stroke-dashoffset:0;stroke-opacity:1;marker:none;marker-start:none;marker-mid:none;marker-end:none;enable-background:accumulate"
         inkscape:connector-curvature="0" />
      <path
         sodipodi:nodetypes="ccc"
         id="path6789"
         d="m 27.272727,2.0909092 1.090909,33.1818178 29.363637,7.272729"
         style="color:#000000;display:inline;overflow:visible;visibility:visible;opacity:1;fill:none;fill-opacity:1;fill-rule:nonzero;stroke:#004c5b;stroke-width:2.16146827;stroke-linecap:butt;stroke-linejoin:bevel;stroke-miterlimit:4;stroke-dasharray:4.32293653, 2.16146827;stroke-dashoffset:1.72917461;stroke-opacity:1;marker:none;marker-start:none;marker-mid:none;marker-end:none;enable-background:accumulate"
         inkscape:connector-curvature="0" />
      <path
         sodipodi:nodetypes="cc"
         id="path6791"
         d="M 28.272727,35.272727 6.2727272,52.636364"
         style="color:#000000;display:inline;overflow:visible;visibility:visible;opacity:1;fill:url(#radialGradient3270);fill-opacity:1;fill-rule:nonzero;stroke:#004c5b;stroke-width:2.16100001;stroke-linecap:butt;stroke-linejoin:bevel;stroke-miterlimit:4;stroke-dasharray:4.322, 2.161;stroke-dashoffset:0;stroke-opacity:1;marker:none;marker-start:none;marker-mid:none;marker-end:none;enable-background:accumulate"
         inkscape:connector-curvature="0" />
    </g>
    <g
       id="g964"
       transform="matrix(0.04168251,0,0,0.04168251,106.16768,170.98655)">
      <path
         style="fill:#ffffff;fill-opacity:1;fill-rule:evenodd;stroke:none;stroke-width:49.55211258;stroke-linecap:round;stroke-miterlimit:4;stroke-dasharray:none;stroke-dashoffset:0;stroke-opacity:1"
         d="m 123.13385,376.07448 -0.76703,-93.85772 135.78092,0.76703 H 384.7243 v 93.09069 93.09069 H 258.14774 l -135.78092,0.76703 z"
         id="path884"
         inkscape:connector-curvature="0" />
      <path
         style="fill:#cdcdcd;fill-opacity:1;fill-rule:evenodd;stroke:none;stroke-width:28.39896965;stroke-linecap:round;stroke-miterlimit:4;stroke-dasharray:none;stroke-dashoffset:0;stroke-opacity:1"
         d="m 136.76963,114.29685 -3.53665,-63.952136 116.2702,1.668439 99.96358,-7.351178 -0.29816,69.634875 -4.60219,62.28371 h -95.06323 l -115.87616,2.11697 z"
         id="path882"
         inkscape:connector-curvature="0" />
      <path
         style="fill:url(#linearGradient892);fill-opacity:1;fill-rule:evenodd;stroke:none;stroke-width:30.30794144;stroke-linecap:round;stroke-miterlimit:4;stroke-dasharray:none;stroke-dashoffset:0;stroke-opacity:1"
         d="M 50.284852,257.13655 V 50.663702 l 28.197528,1.894246 50.7506,-2.213234 -0.55307,68.597956 0.94711,59.75486 68.23684,3.61628 54.72566,-4.73561 c 107.53131,7.01813 91.1986,5.15983 91.85011,-68.51403 0.45674,-52.964331 2.82507,-64.902201 5.02713,-64.402195 15.65629,-14.824857 52.172,24.246696 67.22178,46.425183 l 46.86186,49.499602 8.27157,159.57087 -7.34718,166.03544 -36.68011,-1.33943 -34.65125,-5.03275 v -95.53611 c 0,-86.66035 -5.48787,-88.00772 -11.15296,-91.60992 -1.23711,-0.78662 -59.71552,1.55485 -137.07181,1.53891 -163.211868,-6.00489 -120.89899,-4.15798 -129.28231,88.05344 l 4.33086,99.86893 -35.853052,2.02373 -34.776429,-5.28609 z"
         id="path838"
         inkscape:connector-curvature="0" />
      <g
         transform="matrix(0.87312915,0,0,0.87312915,32.478937,32.478937)"
         style="fill:#000000;fill-opacity:1;stroke:#000000;stroke-opacity:1"
         id="g4">
		<path
   style="fill:#000000;fill-opacity:1;stroke:#000000;stroke-width:0;stroke-miterlimit:4;stroke-dasharray:none;stroke-opacity:1"
   id="path2"
   d="M 505.92639,114.548 396.636,6.0216119 c -2.629,-2.614 -6.011,-3.731 -9.718,-3.731 H 27.401388 c -15.986,0 -25.1910227,10.0125891 -25.1107761,25.9983881 l 2.2906119,456.30961 c 0.080247,15.9858 6.8341642,22.82017 22.8201642,22.82017 H 486.00161 c 15.986,0 21.31548,-6.83449 21.41717,-22.82017 L 509.70939,124.493 c 0.0237,-3.73292 -1.138,-7.312 -3.783,-9.945 z M 304.16294,25.764388 h 46.37989 V 158.88322 h -46.37989 z m -181.9305,0 H 289.85161 V 158.88322 H 122.23244 Z M 404.73545,483.945 h -298.8729 v -49.46922 h 298.8729 z m 0,-66.07017 h -298.8729 v -54.93805 h 298.8729 z m 0,-71.54 h -298.8729 v -58.63166 h 298.8729 z m 81.26616,139.90078 H 421.33639 V 284.42822 c 0,-7.746 -5.58,-13.326 -13.326,-13.326 H 103.98961 c -7.745998,0 -14.728998,5.58 -14.728998,13.326 V 486.23661 H 27.401388 c -0.516,0 -1.637,-1.121 -1.637,-1.637 V 25.998388 c 0,-0.516 1.121,-0.234 1.637,-0.234 H 103.34088 V 165.33739 c 0,7.746 2.40178,12.43839 10.14778,12.43839 H 358.4 c 7.746,0 11.03539,-4.69239 11.03539,-12.43839 V 25.764388 h 16.27483 l 102.817,102.270002 -2.29061,356.56522 c -10e-4,0.515 0.281,1.636 -0.235,1.636 z"
   inkscape:connector-curvature="0" />

	</g>
    </g>
  </g>
</svg>
