<?xml version="1.0" encoding="UTF-8" standalone="no"?>
<!-- Created with Inkscape (http://www.inkscape.org/) -->

<svg
   xmlns:dc="http://purl.org/dc/elements/1.1/"
   xmlns:cc="http://creativecommons.org/ns#"
   xmlns:rdf="http://www.w3.org/1999/02/22-rdf-syntax-ns#"
   xmlns:svg="http://www.w3.org/2000/svg"
   xmlns="http://www.w3.org/2000/svg"
   xmlns:sodipodi="http://sodipodi.sourceforge.net/DTD/sodipodi-0.dtd"
   xmlns:inkscape="http://www.inkscape.org/namespaces/inkscape"
   width="48mm"
   height="48mm"
   viewBox="0 0 48 48"
   version="1.1"
   id="svg8"
   inkscape:version="0.92.3 (2405546, 2018-03-11)"
   sodipodi:docname="TakeSnapshotHighRes.svg">
  <defs
     id="defs2" />
  <sodipodi:namedview
     id="base"
     pagecolor="#ffffff"
     bordercolor="#666666"
     borderopacity="1.0"
     inkscape:pageopacity="0.0"
     inkscape:pageshadow="2"
     inkscape:zoom="3.959798"
     inkscape:cx="42.451862"
     inkscape:cy="73.307039"
     inkscape:document-units="mm"
     inkscape:current-layer="layer1"
     showgrid="false"
     fit-margin-top="2"
     fit-margin-left="2"
     fit-margin-right="2"
     fit-margin-bottom="2"
     inkscape:window-width="1920"
     inkscape:window-height="1011"
     inkscape:window-x="-8"
     inkscape:window-y="-8"
     inkscape:window-maximized="1" />
  <metadata
     id="metadata5">
    <rdf:RDF>
      <cc:Work
         rdf:about="">
        <dc:format>image/svg+xml</dc:format>
        <dc:type
           rdf:resource="http://purl.org/dc/dcmitype/StillImage" />
        <dc:title />
      </cc:Work>
    </rdf:RDF>
  </metadata>
  <g
     inkscape:label="Layer 1"
     inkscape:groupmode="layer"
     id="layer1"
     transform="translate(-78.504893,-143.48427)">
    <rect
       style="opacity:1;fill:#ffffff;fill-opacity:1;fill-rule:evenodd;stroke:none;stroke-width:13.22916603;stroke-linecap:square;stroke-miterlimit:4;stroke-dasharray:none;stroke-dashoffset:0;stroke-opacity:1"
       id="rect4523"
       width="33.341873"
       height="24.054256"
       x="83.649834"
       y="160.68146" />
    <g
       id="g880"
       transform="matrix(0.94021305,0,0,0.94021305,5.7976633,8.6451584)">
      <path
         sodipodi:nodetypes="sscsscccscscscccsccccccc"
         inkscape:connector-curvature="0"
         id="path869"
         transform="scale(0.26458333)"
         d="m 379.75586,560.86328 c -20.70178,0.0478 -20.54102,2.72859 -20.54102,16.89063 0,5.88276 0.32892,12.27236 0.32892,23.44176 -9.72625,0 -20.33684,0.60902 -30.32892,0.60902 -26.21418,0 -25.23122,-0.30563 -24.81054,60.17773 0.34844,50.09843 0.0409,48.07455 7.88086,52.07227 6.11211,3.11663 149.31133,2.63357 154.03125,-0.51953 6.96737,-4.65442 6.89452,-4.08504 6.89648,-54.0293 0.002,-58.2793 1.50262,-56.91161 -24.82617,-57.70117 -10.71852,-0.32143 -23.36245,-0.0957 -31.01824,-0.30903 0.032,-9.53651 0.0172,-18.09972 -0.16536,-21.38238 -0.99089,-17.8162 -0.0828,-18.85761 -22.81054,-19.14648 -5.48974,-0.0698 -10.34449,-0.11343 -14.63672,-0.10352 z m -53.71484,57.05274 c 1.45954,0.0665 2.91183,0.62666 4.11523,1.83007 2.93333,2.93333 2.67375,7.42994 -0.57617,9.98633 -4.04066,3.17836 -8.37034,1.88869 -10.44141,-3.11133 -1.92971,-4.65874 2.52371,-8.90448 6.90235,-8.70507 z m 63.16294,-1.68083 c 7.40268,0.0412 13.35141,1.40029 20.51814,5.03181 35.00788,17.73918 33.72274,69.13893 -8.70312,80.18945 v 0 c -48.39274,12.60469 -74.77462,-57.0381 -30.34906,-80.48776 3.92555,-2.07205 11.13136,-4.7747 18.53404,-4.7335 z"
         style="fill:#000000;stroke-width:0.99999994" />
      <circle
         r="6.6573205"
         cy="174.39636"
         cx="103.34881"
         id="path876"
         style="opacity:1;fill:#000000;fill-opacity:1;fill-rule:evenodd;stroke:none;stroke-width:0;stroke-linecap:square;stroke-miterlimit:4;stroke-dasharray:none;stroke-dashoffset:0;stroke-opacity:1" />
    </g>
    <g
       id="g897"
       transform="translate(14.833459,60.169052)">
      <rect
         y="115.84699"
         x="91.811104"
         height="15.367997"
         width="19.758854"
         id="rect882"
         style="opacity:1;fill:#008000;fill-opacity:1;fill-rule:evenodd;stroke:none;stroke-width:0;stroke-linecap:square;stroke-miterlimit:4;stroke-dasharray:none;stroke-dashoffset:0;stroke-opacity:1" />
      <g
         transform="translate(-0.15744458,0.12844203)"
         id="text886"
         style="font-style:normal;font-variant:normal;font-weight:bold;font-stretch:normal;font-size:10.58333302px;line-height:1.25;font-family:'QuickType II';-inkscape-font-specification:'QuickType II Bold';letter-spacing:0px;word-spacing:0px;fill:#ffffff;fill-opacity:1;stroke:none;stroke-width:0.26458332"
         aria-label="HD">
        <path
           inkscape:connector-curvature="0"
           id="path888"
           style="font-style:normal;font-variant:normal;font-weight:bold;font-stretch:normal;font-family:'QuickType II';-inkscape-font-specification:'QuickType II Bold';fill:#ffffff;stroke-width:0.26458332"
           d="m 94.850985,119.4493 h 1.545125 v 3.12126 h 2.950725 v -3.12126 h 1.545125 v 7.9065 h -1.545125 v -3.40548 H 96.39611 v 3.40548 h -1.545125 z" />
        <path
           inkscape:connector-curvature="0"
           id="path890"
           style="font-style:normal;font-variant:normal;font-weight:bold;font-stretch:normal;font-family:'QuickType II';-inkscape-font-specification:'QuickType II Bold';fill:#ffffff;stroke-width:0.26458332"
           d="m 102.4991,119.4493 h 2.86804 q 1.56579,0 2.52181,1.10071 0.95601,1.09554 0.95601,2.7957 0,1.16788 -0.47025,2.13423 -0.46509,0.96635 -1.30225,1.4211 -0.83716,0.45476 -1.9637,0.45476 h -2.60966 z m 2.32544,1.3746 h -0.78032 v 5.1573 h 1.10071 q 0.95085,0 1.50895,-0.76481 0.56328,-0.76481 0.56328,-1.88102 0,-1.13171 -0.66663,-1.81901 -0.66663,-0.69246 -1.72599,-0.69246 z" />
      </g>
    </g>
  </g>
</svg>
