<svg id="Layer_1" data-name="Layer 1" xmlns="http://www.w3.org/2000/svg" viewBox="0 0 162.13 89.66"><rect x="33.38" y="76.19" width="141.2" height="5.05" transform="translate(-22.91 -51.19) rotate(-5.06)" style="fill:#faaa61;stroke:#faaa61;stroke-miterlimit:10;stroke-width:2px"/><polygon points="160.38 53.71 71.86 75.89 71.86 31.53 160.02 9.45 160.38 53.71" style="fill:#faaa61;stroke:#db8832;stroke-miterlimit:10;stroke-width:2px"/><polygon points="14.68 66.09 72.1 75.72 72.1 31.37 15.03 21.8 14.68 66.09" style="fill:#faaa61;stroke:#db8832;stroke-miterlimit:10;stroke-width:2px"/><polyline points="14.27 21.56 71.28 31.3 159.8 9.12" style="fill:#faaa61;stroke:#db8832;stroke-miterlimit:10;stroke-width:2px"/><polyline points="160.87 9.1 101.48 1.02 14.27 21.56" style="fill:#faaa61;stroke:#db8832;stroke-miterlimit:10;stroke-width:2px"/><line x1="73.32" y1="85.1" x2="161.38" y2="63.46" style="fill:none;stroke:#00b6f0;stroke-miterlimit:10;stroke-width:3px"/><line x1="14.68" y1="75.78" x2="70.34" y2="85.26" style="fill:none;stroke:#00b6f0;stroke-miterlimit:10;stroke-width:3px"/><line x1="4.56" y1="22.09" x2="4.56" y2="65.69" style="fill:none;stroke:#00b6f0;stroke-miterlimit:10;stroke-width:3px"/><line x1="9.13" y1="22.23" y2="22.23" style="fill:none;stroke:#00b6f0;stroke-miterlimit:10;stroke-width:3px"/><line x1="9.13" y1="65.69" y2="65.69" style="fill:none;stroke:#00b6f0;stroke-miterlimit:10;stroke-width:3px"/><line x1="14.68" y1="80.29" x2="14.68" y2="71.16" style="fill:none;stroke:#00b6f0;stroke-miterlimit:10;stroke-width:3px"/><line x1="69.38" y1="89.66" x2="69.38" y2="80.54" style="fill:none;stroke:#00b6f0;stroke-miterlimit:10;stroke-width:3px"/><line x1="74.16" y1="89.66" x2="74.16" y2="80.54" style="fill:none;stroke:#00b6f0;stroke-miterlimit:10;stroke-width:3px"/><line x1="160.63" y1="68.21" x2="160.63" y2="59.08" style="fill:none;stroke:#00b6f0;stroke-miterlimit:10;stroke-width:3px"/><line x1="42.51" y1="26.4" x2="127.79" y2="4.72" style="fill:#faaa61;stroke:#db8832;stroke-miterlimit:10;stroke-width:2px"/></svg>