<?xml version="1.0" encoding="UTF-8" standalone="no"?>
<svg
   xmlns:dc="http://purl.org/dc/elements/1.1/"
   xmlns:cc="http://creativecommons.org/ns#"
   xmlns:rdf="http://www.w3.org/1999/02/22-rdf-syntax-ns#"
   xmlns:svg="http://www.w3.org/2000/svg"
   xmlns="http://www.w3.org/2000/svg"
   xml:space="preserve"
   style="enable-background:new 0 0 485 485;"
   viewBox="0 0 485 485"
   y="0px"
   x="0px"
   id="Capa_1"
   version="1.1"><metadata
   id="metadata10"><rdf:RDF><cc:Work
       rdf:about=""><dc:format>image/svg+xml</dc:format><dc:type
         rdf:resource="http://purl.org/dc/dcmitype/StillImage" /><dc:title></dc:title></cc:Work></rdf:RDF></metadata><defs
   id="defs8" />
         
<path
   id="path826"
   d="m 61.911871,456.28536 c -9.241925,-3.0307 -16.671919,-9.70902 -20.35707,-18.29759 -5.317606,-12.39312 -2.529305,-83.11557 11.220182,-120.65964 23.693701,-64.69756 71.482957,-91.38666 130.004817,-93.88904 18.46705,-0.78965 35.4855,0.97013 71.77979,7.42236 34.55919,6.14376 44.21534,7.21936 59.4317,6.62007 11.53949,-0.45448 14.71799,-1.05025 21.19677,-3.97309 29.49109,-13.30458 45.14919,-61.71758 49.4343,-152.845072 1.52345,-32.39786 2.68993,-37.088504 11.11639,-44.701305 4.4832,-4.050294 14.51214,-8.05503 20.17201,-8.05503 5.7053,0 15.6898,4.005619 20.24701,8.122786 8.50357,7.68247 9.81504,12.101749 9.81163,33.062523 -0.0123,74.960558 -14.85267,143.882808 -38.70755,179.765668 -29.09888,43.77096 -73.01252,58.00115 -141.96596,46.00401 -9.95408,-1.7319 -26.24257,-4.56675 -36.19665,-6.29966 -45.57718,-7.93457 -68.74368,-4.48663 -86.03515,12.80484 -18.51088,18.51088 -32.50209,56.64788 -40.12257,109.3654 -1.70715,11.80992 -3.717867,23.54734 -4.468255,26.08316 -1.791378,6.05373 -8.576115,13.85653 -14.817129,17.04045 -5.424319,2.76729 -16.828257,4.04127 -21.744265,2.42916 z"
   style="fill:#ff7f00;stroke:#000000;stroke-width:13.628;stroke-miterlimit:4;stroke-dasharray:none;stroke-opacity:1;fill-opacity:1" /></svg>