<?xml version="1.0" encoding="UTF-8"?><svg id="b" xmlns="http://www.w3.org/2000/svg" viewBox="0 0 72 72"><path d="M58.13,49.06l-13.37-13.37,13.37-13.37c1.02-1.02,1.02-2.67,0-3.69l-5.32-5.32c-1.02-1.02-2.67-1.02-3.69,0l-13.37,13.37-13.37-13.37c-1.02-1.02-2.67-1.02-3.69,0l-5.32,5.32c-1.02,1.02-1.02,2.67,0,3.69l13.37,13.37-13.37,13.37c-1.02,1.02-1.02,2.67,0,3.69l5.32,5.32c1.02,1.02,2.67,1.02,3.69,0l13.37-13.37,13.37,13.37c1.02,1.02,2.67,1.02,3.69,0l5.32-5.32c1.02-1.02,1.02-2.67,0-3.69Z" style="fill:#d11317;"/></svg>