<?xml version="1.0" encoding="UTF-8" standalone="no" ?>
<!DOCTYPE svg PUBLIC "-//W3C//DTD SVG 1.1//EN" "http://www.w3.org/Graphics/SVG/1.1/DTD/svg11.dtd">
<svg xmlns="http://www.w3.org/2000/svg" xmlns:xlink="http://www.w3.org/1999/xlink" version="1.1" width="500" height="500" viewBox="0 0 500 500" xml:space="preserve">
<desc>Created with Fabric.js 4.2.0</desc>
<defs>
</defs>
<g transform="matrix(1 0 0 1 250 250)" id="20ab6934-af96-4a05-92a0-b54093099b1c"  >
<rect style="stroke: none; stroke-width: 1; stroke-dasharray: none; stroke-linecap: butt; stroke-dashoffset: 0; stroke-linejoin: miter; stroke-miterlimit: 4; fill: rgb(255,255,255); fill-opacity: 0; fill-rule: nonzero; opacity: 1;" vector-effect="non-scaling-stroke"  x="-250" y="-250" rx="0" ry="0" width="500" height="500" />
</g>
<g transform="matrix(Infinity NaN NaN Infinity 0 0)" id="dc367347-9c7d-46cf-9a85-4b03752ee12c"  >
</g>
<g transform="matrix(3.6 0 0 3.6 250 250)"  >
<g style="" vector-effect="non-scaling-stroke"   >
		<g transform="matrix(3.78 0 0 3.78 0.91 -0.63)" id="path1457"  >
<path style="stroke: none; stroke-width: 0.26458332; stroke-dasharray: none; stroke-linecap: butt; stroke-dashoffset: 0; stroke-linejoin: miter; stroke-miterlimit: 4; fill: rgb(210,230,249); fill-rule: nonzero; opacity: 1;" vector-effect="non-scaling-stroke"  transform=" translate(-81.12, -148.67)" d="M 64.955832 148.63287 L 66.070238 143.6363 L 77.41239900000001 132.7018 L 95.954721 137.31215 L 96.617523 148.23196000000002 L 97.29106900000001 154.64581 L 80.41918100000001 164.63076 L 68.43033600000001 161.82443 z" stroke-linecap="round" />
</g>
		<g transform="matrix(3.78 0 0 3.78 0 0)" id="path1455"  >
<path style="stroke: none; stroke-width: 0.26458332; stroke-dasharray: none; stroke-linecap: butt; stroke-dashoffset: 0; stroke-linejoin: miter; stroke-miterlimit: 4; fill: rgb(61,150,231); fill-rule: nonzero; opacity: 1;" vector-effect="non-scaling-stroke"  transform=" translate(-80.88, -148.83)" d="M 75.992112 164.31146 C 65.228478 161.89918 65.869193 162.0821 65.137547 161.21259 L 64.47566499999999 160.42598 L 64.545345 151.66324 L 64.615025 142.9005 L 70.692549 137.40024 C 74.646605 133.82175999999998 76.96945099999999 131.89999 77.340708 131.89999 C 77.65455800000001 131.89999 80.872797 132.55799 84.49235 133.36222 C 88.111904 134.16644 91.906795 135.00944 92.925441 135.23554000000001 C 95.525858 135.81274000000002 96.17210800000001 136.09879 96.768765 136.93671 C 97.26303 137.63085 97.291065 138.13202 97.291065 146.27381 L 97.291065 154.8774 L 91.312781 160.32202999999998 L 85.334495 165.76665999999997 L 83.838302 165.75065999999998 C 83.015395 165.74166 79.484608 165.09420999999998 75.992108 164.3115 z M 85.120237 156.87084000000002 L 85.120237 149.85835000000003 L 85.843683 148.38087000000002 C 86.410462 147.22336 87.551796 145.95908000000003 91.114038 142.54280000000003 C 93.907737 139.86357000000004 95.607666 138.04335000000003 95.52276099999999 137.82209000000003 C 95.38052599999999 137.45143000000004 94.46529799999999 137.14567000000002 91.97532299999999 136.63693000000004 C 90.04652499999999 136.24286000000004 89.52402 136.12619000000004 83.29741899999999 134.69921000000002 C 80.330338 134.01924000000002 77.74204699999999 133.49819000000002 77.545662 133.54134000000002 C 77.34927699999999 133.58444000000003 74.686967 135.8735 71.62941799999999 138.62804000000003 L 66.07023799999999 143.63630000000003 L 66.07793799999999 150.53429000000003 L 66.08563799999999 157.43228000000002 L 67.03424399999999 155.65391000000002 C 68.35360299999999 153.18047 70.20809699999998 151.41327 72.80054399999999 150.15903000000003 C 75.82639999999999 148.69511000000003 76.31012299999999 148.64710000000002 77.471381 149.69545000000002 C 78.811381 150.90515000000002 80.312953 152.21213000000003 81.95248099999999 153.59582000000003 C 84.81208799999999 156.00921000000002 84.591128 155.46407000000002 84.591128 160.10575000000003 C 84.591128 162.77480000000003 84.683668 164.15319000000002 84.855711 164.04686000000004 C 85.021332 163.94450000000003 85.120295 161.26044000000005 85.120295 156.87084000000004 z" stroke-linecap="round" />
</g>
		<g transform="matrix(3.78 0 0 3.78 0.01 0.13)" id="path1453"  >
<path style="stroke: none; stroke-width: 0.26458332; stroke-dasharray: none; stroke-linecap: butt; stroke-dashoffset: 0; stroke-linejoin: miter; stroke-miterlimit: 4; fill: rgb(10,10,12); fill-rule: nonzero; opacity: 1;" vector-effect="non-scaling-stroke"  transform=" translate(-80.89, -148.87)" d="M 74.421734 163.89066 C 69.920006 162.8833 65.955864 161.87503999999998 65.612529 161.65009 C 65.269195 161.42512 64.87453699999999 160.94188 64.73551099999999 160.57622 C 64.59433899999999 160.20491 64.48273799999998 156.24113 64.48273799999998 151.5984 L 64.48273799999998 143.28542 L 65.21034199999998 142.51980999999998 C 65.93444099999998 141.75788999999997 69.79727699999998 138.23519 74.47995199999998 134.06643999999997 C 76.83138799999999 131.97306999999998 76.97861799999998 131.88660999999996 77.91953499999998 132.04652999999996 C 78.46018099999998 132.13842999999997 82.65299699999998 133.03927999999996 87.23690299999998 134.04844999999997 C 95.44578599999998 135.85565999999997 95.58422599999999 135.89705999999998 96.43117399999998 136.79816999999997 L 97.29106899999998 137.71304999999998 L 97.29106899999998 146.17942999999997 L 97.29106899999998 154.64580999999995 L 96.56346499999998 155.40818999999996 C 96.16328299999998 155.82749999999996 93.87132999999999 157.94272999999995 91.47023599999999 160.10871999999995 C 89.06914299999998 162.27469999999994 86.68789299999999 164.43277999999995 86.17856999999998 164.90446999999995 C 85.38112999999998 165.64296999999993 85.06881199999998 165.75929999999994 83.92961199999998 165.74213999999995 C 83.20200799999998 165.73113999999995 78.92346299999998 164.89800999999994 74.42173399999997 163.89065999999994 z M 86.584859 162.65067 C 87.608683 161.67233 89.58757299999999 159.8003 90.98239199999999 158.49061 C 93.15804999999999 156.44775 95.31918499999999 153.60463000000001 94.70614099999999 153.59177 C 94.59988399999999 153.58977 94.63201099999999 153.50027 94.77753099999998 153.39333 C 95.69349999999999 152.72038 95.80869399999999 151.88613999999998 95.91866799999998 145.12915999999998 C 96.02096899999998 138.84353 95.99475799999998 138.34149 95.53529499999998 137.78563 C 95.11953699999998 137.28264 93.73631099999997 136.89844 86.72407799999998 135.33823 C 82.14915899999998 134.32032 78.12295799999998 133.48749 77.77696599999997 133.48749 C 77.33175899999998 133.48749 75.54830599999997 134.93602 71.67521099999998 138.44336 C 68.66523799999997 141.16909 66.11505899999997 143.52057000000002 66.00814599999998 143.66888 C 65.90123399999999 143.81719 65.81193699999999 147.46745 65.80970899999998 151.78057 C 65.80600899999999 158.86513000000002 65.85037899999999 159.67619000000002 66.26867799999998 160.17728000000002 C 66.64226199999997 160.62480000000002 68.31601099999997 161.08545000000004 74.93378199999998 162.56206000000003 C 79.44492699999998 163.56863000000004 83.49305199999998 164.40058000000002 83.92961499999998 164.41083000000003 C 84.56061599999998 164.42563000000004 85.10504099999999 164.06476000000004 86.58486199999999 162.65067000000002 z" stroke-linecap="round" />
</g>
</g>
</g>
<g transform="matrix(6.43 0 0 6.43 247.23 252.77)" id="6f6b957d-4b57-4c9b-981e-3508df7f8e1b"  >
<path style="stroke: rgb(0,0,0); stroke-width: 0; stroke-dasharray: none; stroke-linecap: butt; stroke-dashoffset: 0; stroke-linejoin: miter; stroke-miterlimit: 4; fill: rgb(255,0,0); fill-rule: nonzero; opacity: 0.64;" vector-effect="non-scaling-stroke"  transform=" translate(-50, -50)" d="M 16.28 19.945 L 19.957 16.32 C 22.060000000000002 14.166 25.578000000000003 14.166 27.681 16.32 L 50.007000000000005 38.595 L 72.333 16.32 C 74.43599999999999 14.166 77.954 14.166 80.054 16.32 L 83.68 19.945 C 85.834 22.046 85.834 25.566000000000003 83.68 27.668 L 61.405 49.993 L 83.68 72.32 C 85.834 74.422 85.834 77.939 83.68 80.04299999999999 L 80.054 83.72099999999999 C 77.95400000000001 85.82 74.436 85.82 72.333 83.72099999999999 L 50.007 61.393 L 27.681 83.721 C 25.578 85.82000000000001 22.060000000000002 85.82000000000001 19.957 83.721 L 16.28 80.043 C 14.180000000000001 77.93900000000001 14.180000000000001 74.42200000000001 16.28 72.32000000000001 L 38.606 49.99300000000001 L 16.28 27.667 C 14.18 25.566 14.18 22.046 16.28 19.945 z" stroke-linecap="round" />
</g>
</svg>