<?xml version="1.0" encoding="UTF-8" standalone="no"?>
<svg
   xmlns:dc="http://purl.org/dc/elements/1.1/"
   xmlns:cc="http://creativecommons.org/ns#"
   xmlns:rdf="http://www.w3.org/1999/02/22-rdf-syntax-ns#"
   xmlns:svg="http://www.w3.org/2000/svg"
   xmlns="http://www.w3.org/2000/svg"
   version="1.1"
   id="Capa_1"
   x="0px"
   y="0px"
   viewBox="0 0 485 485"
   style="enable-background:new 0 0 485 485;"
   xml:space="preserve"><metadata
   id="metadata10"><rdf:RDF><cc:Work
       rdf:about=""><dc:format>image/svg+xml</dc:format><dc:type
         rdf:resource="http://purl.org/dc/dcmitype/StillImage" /><dc:title></dc:title></cc:Work></rdf:RDF></metadata><defs
   id="defs8" />
         
<path
   style="fill:#2c53d1;fill-opacity:1;stroke:#ffffff;stroke-width:23.60853004;stroke-miterlimit:4;stroke-dasharray:none;stroke-opacity:1"
   d="m 68.81425,436.77688 c -10.037434,-0.97291 -31.2365,-3.07149 -31.666844,-9.45479 -0.866051,-12.8461 9.089651,-77.53636 22.21668,-113.38076 22.621055,-61.76861 65.160744,-92.70262 121.033244,-95.09171 17.63102,-0.75391 33.87676,0.93895 68.53022,7.08634 30.16891,5.35185 38.04925,5.20317 52.56141,4.32417 7.1638,-0.43391 15.9351,-2.10581 27.50298,-9.2426 11.56788,-7.13679 35.11282,-42.3919 39.20394,-129.393923 1.45448,-30.931165 1.7011,-45.521519 2.67863,-51.962011 0.54185,-3.569968 20.86608,-2.602749 37.1857,-2.038884 19.82992,0.685151 27.14923,0.46594 27.85705,2.132065 2.36545,5.568047 0.84405,17.176877 0.8408,37.188729 -0.0118,71.566994 -14.18027,137.369034 -36.95521,171.627434 -27.78153,41.78939 -69.70714,55.37536 -135.53897,43.92134 -9.50344,-1.65349 -25.05453,-4.36 -34.55798,-6.01446 -43.51383,-7.57536 -65.63156,-4.28352 -82.14022,12.22515 -17.67286,17.67286 -31.03067,54.08335 -38.30616,104.41428 -1.62987,11.27526 -3.20212,31.17569 -5.62565,34.22859 -2.38724,3.00719 -24.782186,0.40395 -34.81962,-0.56896 z"
   id="path826" /></svg>