<?xml version="1.0" encoding="UTF-8"?><svg id="b" xmlns="http://www.w3.org/2000/svg" viewBox="0 0 72 72"><path d="M53.02,19.91l6.16-5.44,2.87,21.17-20.65-5.45,6.16-5.44c-4.09-4.63-10.4-6.75-16.47-5.51-6.42,1.3-11.44,6.04-13.77,12.99l-6.93-2.32c3.18-9.49,10.19-15.99,19.24-17.83,8.62-1.75,17.58,1.25,23.4,7.83Z" style="fill:#27a0db;"/><path d="M18.66,51.72l-6.16,5.44-2.87-21.17,20.65,5.45-6.16,5.44c4.09,4.63,10.4,6.75,16.47,5.51,6.42-1.3,11.44-6.04,13.77-12.99l6.93,2.32c-3.18,9.49-10.19,15.99-19.24,17.83-8.62,1.75-17.58-1.25-23.4-7.83Z" style="fill:#27a0db;"/></svg>