<?xml version="1.0" encoding="UTF-8"?><svg id="b" xmlns="http://www.w3.org/2000/svg" viewBox="0 0 198.21 196.18"><g><path d="M178.15,107.78l16.22-1.22-2.36-31.31-16.03,1.21c-2.41-8.77-6.27-16.94-11.33-24.22l11-11.53-22.71-21.68-10.92,11.45c-8.13-5.19-17.25-8.95-27.03-10.91V3.83h-31.39v15.74c-12.33,2.47-23.62,7.8-33.17,15.25l-11.97-10.39-20.58,23.72,12.07,10.46c-5.03,8.93-8.38,18.94-9.62,29.6l-16.11,1.21,2.36,31.31,16.28-1.23c2.48,8.64,6.38,16.69,11.45,23.86l-11.37,11.92,22.71,21.67,11.46-12c7.99,5.02,16.93,8.66,26.49,10.57v16.64h31.39v-16.64c12.09-2.42,23.19-7.59,32.62-14.82l12.52,10.86,20.57-23.72-12.42-10.77c5.08-8.84,8.5-18.74,9.85-29.29Zm-78.85,15.19c-13.8,0-24.98-11.19-24.98-24.98s11.18-24.98,24.98-24.98,24.98,11.18,24.98,24.98-11.18,24.98-24.98,24.98Z" style="fill:#c6c6c6;"/><path d="M115.99,193.14h-33.39v-16.82c-8.96-1.89-17.48-5.29-25.33-10.11l-11.59,12.13-24.16-23.05,11.5-12.05c-4.82-6.97-8.48-14.6-10.89-22.7l-16.47,1.24-2.51-33.3,16.29-1.22c1.27-10.03,4.38-19.59,9.24-28.44l-12.21-10.58,21.89-25.23,12.11,10.5c9.48-7.24,20.56-12.33,32.13-14.77V2.83h33.39v15.92c9.16,1.93,17.86,5.44,25.88,10.44l11.04-11.58,24.16,23.06-11.13,11.67c4.81,7.08,8.44,14.83,10.79,23.06l16.21-1.22,2.51,33.3-16.41,1.23c-1.38,9.94-4.56,19.4-9.46,28.13l12.55,10.88-21.88,25.23-12.66-10.99c-9.34,7.01-20.23,11.95-31.58,14.35v16.82Zm-31.39-2h29.39v-16.46l.8-.16c11.61-2.32,22.75-7.38,32.21-14.63l.65-.5,12.38,10.74,19.26-22.2-12.28-10.65,.41-.71c5.14-8.94,8.41-18.67,9.73-28.92l.1-.81,16.04-1.21-2.21-29.31-15.85,1.19-.22-.79c-2.35-8.57-6.11-16.62-11.19-23.91l-.47-.67,10.88-11.4-21.26-20.3-10.79,11.32-.69-.44c-8.23-5.25-17.21-8.88-26.69-10.77l-.8-.16V4.83h-29.39v15.56l-.8,.16c-11.83,2.37-23.15,7.57-32.75,15.05l-.65,.51-11.83-10.27-19.26,22.21,11.93,10.34-.4,.71c-5.1,9.06-8.29,18.89-9.5,29.22l-.1,.82-15.93,1.19,2.21,29.31,16.09-1.21,.22,.78c2.42,8.43,6.22,16.36,11.3,23.56l.47,.67-11.25,11.79,21.26,20.29,11.33-11.87,.69,.43c8.07,5.07,16.87,8.58,26.16,10.43l.8,.16v16.46Zm14.7-67.17c-14.32,0-25.98-11.66-25.98-25.98s11.65-25.98,25.98-25.98,25.98,11.65,25.98,25.98-11.65,25.98-25.98,25.98Zm0-49.96c-13.22,0-23.98,10.76-23.98,23.98s10.76,23.98,23.98,23.98,23.98-10.76,23.98-23.98-10.76-23.98-23.98-23.98Z" style="fill:#808181;"/></g><path d="M99.3,48c-27.61,0-49.98,22.38-49.98,49.99s22.37,49.98,49.98,49.98,49.98-22.37,49.98-49.98-22.38-49.99-49.98-49.99Zm-.02,74.99c-13.8,0-24.98-11.19-24.98-24.98s11.18-24.98,24.98-24.98,24.98,11.18,24.98,24.98-11.18,24.98-24.98,24.98Z" style="fill:#9d9d9c;"/><path d="M99.3,148.97c-28.11,0-50.98-22.87-50.98-50.98s22.87-50.99,50.98-50.99,50.98,22.87,50.98,50.99-22.87,50.98-50.98,50.98Zm0-99.96c-27.01,0-48.98,21.98-48.98,48.99s21.97,48.98,48.98,48.98,48.98-21.97,48.98-48.98-21.97-48.99-48.98-48.99Z" style="fill:#808181;"/><path d="M99.3,123.97c-14.32,0-25.98-11.66-25.98-25.98s11.65-25.98,25.98-25.98,25.98,11.65,25.98,25.98-11.65,25.98-25.98,25.98Zm0-49.96c-13.22,0-23.98,10.76-23.98,23.98s10.76,23.98,23.98,23.98,23.98-10.76,23.98-23.98-10.76-23.98-23.98-23.98Z" style="fill:#808181;"/></svg>