<?xml version="1.0" encoding="UTF-8" standalone="no"?>
<!-- Created with Inkscape (http://www.inkscape.org/) -->

<svg
   xmlns:dc="http://purl.org/dc/elements/1.1/"
   xmlns:cc="http://creativecommons.org/ns#"
   xmlns:rdf="http://www.w3.org/1999/02/22-rdf-syntax-ns#"
   xmlns:svg="http://www.w3.org/2000/svg"
   xmlns="http://www.w3.org/2000/svg"
   xmlns:xlink="http://www.w3.org/1999/xlink"
   xmlns:sodipodi="http://sodipodi.sourceforge.net/DTD/sodipodi-0.dtd"
   xmlns:inkscape="http://www.inkscape.org/namespaces/inkscape"
   width="34.92226mm"
   height="34.907356mm"
   viewBox="0 0 34.92226 34.907356"
   version="1.1"
   id="svg8"
   sodipodi:docname="CalibSettings.svg"
   inkscape:version="0.92.3 (2405546, 2018-03-11)">
  <defs
     id="defs2">
    <linearGradient
       inkscape:collect="always"
       id="linearGradient4957">
      <stop
         style="stop-color:#4d4d4d;stop-opacity:1"
         offset="0"
         id="stop4953" />
      <stop
         id="stop4961"
         offset="0.48099679"
         style="stop-color:#e1e1e1;stop-opacity:1" />
      <stop
         style="stop-color:#4d4d4d;stop-opacity:1"
         offset="1"
         id="stop4955" />
    </linearGradient>
    <linearGradient
       id="linearGradient4935"
       inkscape:collect="always">
      <stop
         id="stop4931"
         offset="0"
         style="stop-color:#bababa;stop-opacity:1" />
      <stop
         style="stop-color:#7e7e7e;stop-opacity:1"
         offset="0.48339716"
         id="stop4937" />
      <stop
         id="stop4933"
         offset="1"
         style="stop-color:#cfcfcf;stop-opacity:1" />
    </linearGradient>
    <linearGradient
       gradientTransform="translate(-2.1942964,42.524738)"
       inkscape:collect="always"
       xlink:href="#linearGradient4935"
       id="linearGradient4799-9"
       gradientUnits="userSpaceOnUse"
       x1="98.9562"
       y1="77.960381"
       x2="64.659264"
       y2="112.63223" />
    <linearGradient
       inkscape:collect="always"
       xlink:href="#linearGradient4957"
       id="linearGradient4959"
       x1="60.352726"
       y1="156.84061"
       x2="102.22523"
       y2="116.78903"
       gradientUnits="userSpaceOnUse" />
  </defs>
  <sodipodi:namedview
     id="base"
     pagecolor="#ffffff"
     bordercolor="#666666"
     borderopacity="1.0"
     inkscape:pageopacity="0"
     inkscape:pageshadow="2"
     inkscape:zoom="1.4"
     inkscape:cx="-7.5120876"
     inkscape:cy="46.82635"
     inkscape:document-units="mm"
     inkscape:current-layer="layer1"
     showgrid="false"
     inkscape:pagecheckerboard="true"
     inkscape:window-width="1920"
     inkscape:window-height="1011"
     inkscape:window-x="-8"
     inkscape:window-y="-8"
     inkscape:window-maximized="1"
     fit-margin-top="1"
     fit-margin-left="1"
     fit-margin-right="1"
     fit-margin-bottom="1" />
  <metadata
     id="metadata5">
    <rdf:RDF>
      <cc:Work
         rdf:about="">
        <dc:format>image/svg+xml</dc:format>
        <dc:type
           rdf:resource="http://purl.org/dc/dcmitype/StillImage" />
        <dc:title></dc:title>
      </cc:Work>
    </rdf:RDF>
  </metadata>
  <g
     inkscape:label="Layer 1"
     inkscape:groupmode="layer"
     id="layer1"
     transform="translate(-63.142293,-119.6624)">
    <g
       id="g4966">
      <path
         sodipodi:nodetypes="ccccscss"
         style="fill:url(#linearGradient4959);fill-opacity:1;stroke:#050505;stroke-width:0.565;stroke-miterlimit:4;stroke-dasharray:none;stroke-opacity:1"
         d="m 78.435618,147.39582 c -9.834563,-1.07903 -11.62031,-17.23316 -1.179042,-19.85994 7.762791,-1.82732 13.896532,3.69416 13.918416,9.19942 -0.22183,6.30485 -3.14615,10.98121 -12.739374,10.66052 z m 3.550669,-8.27841 c 1.153024,-1.22734 0.639354,-3.22644 -0.989084,-3.84928 -1.446535,-0.55326 -3.236686,1.09407 -2.856088,2.62824 0.463761,1.86939 2.599066,2.54746 3.845172,1.22104 z"
         id="path4695-8"
         inkscape:connector-curvature="0" />
      <path
         sodipodi:nodetypes="ccscccccscsscsssssscscsssssccsssssscccccccccccccscsssccc"
         style="fill:url(#linearGradient4799-9);fill-opacity:1;stroke:#0e0e0e;stroke-width:0.30000001;stroke-miterlimit:4;stroke-dasharray:none;stroke-opacity:1"
         d="m 78.686829,153.32459 c -0.27914,0 -0.399584,-0.29951 -0.63515,-0.38987 -0.513469,-0.19703 -1.194126,-1.21882 -1.194126,-1.95752 0,-0.37432 -0.628283,-0.79449 -1.476707,-1.16979 -1.194086,-0.5282 -1.423192,-0.52828 -2.267678,-0.0134 -1.503534,0.91676 -2.132526,0.58158 -3.854817,-1.23587 -1.703314,-1.79742 -1.994728,-2.43498 -1.046365,-3.96946 0.525753,-0.85069 0.443939,-1.60025 -0.01737,-2.56101 -0.391464,-0.81528 -0.935425,-0.89925 -1.983266,-1.20162 -0.884336,-0.25519 -1.114881,-0.46213 -1.321611,-0.91585 -0.162967,-0.35767 -0.34207,-0.5226 -0.368079,-0.64197 -0.0637,-0.29232 -0.01331,-0.67791 -0.01331,-1.86375 0,-2.10192 -0.40349,-2.01922 0.468528,-2.86611 0.522609,-0.50755 1.153903,-1.00405 1.729742,-1.11208 0.808399,-0.15166 1.274911,-0.49068 1.604117,-1.27602 0.375662,-0.89618 0.365396,-1.27072 -0.160291,-2.18652 -0.95744,-1.66795 -0.577114,-2.29411 1.14132,-4.10749 1.7955,-1.8947 2.427237,-2.15706 4.02719,-1.0713 0.958465,0.65043 1.260593,0.57797 2.22011,0.12327 0.797426,-0.37789 0.903108,-0.79375 1.080046,-1.66131 0.134181,-0.65791 0.852471,-1.10808 1.37699,-1.60152 0.796949,-0.74971 0.513137,-0.51792 2.562807,-0.51438 2.098033,0.004 2.046809,-0.0765 2.835612,0.74891 0.587559,0.61482 1.099859,0.69059 1.099859,1.34538 0,0.66714 0.02694,1.35594 0.538449,1.7583 0.906978,0.71342 1.838309,0.66645 2.928877,-0.13815 1.015823,-0.74945 1.524887,-1.10552 2.573413,-0.56331 1.020222,0.52758 2.830742,3.0378 3.037077,3.85989 0.200562,0.7991 -0.184639,1.67734 -0.91095,2.33464 -0.277743,0.25136 -0.563454,0.77639 -0.563454,1.05444 0,1.03349 0.718193,1.80466 2.095188,1.98733 1.255514,0.16655 1.246603,0.17908 2.236359,1.39012 0.19994,0.24465 0.272264,1.19823 0.272264,2.41138 0,1.21316 0.01119,1.85771 -0.188743,2.10235 -0.940329,1.15057 -1.07736,1.25867 -2.00034,1.40651 -1.360382,0.21789 -1.932845,0.68871 -2.217481,1.48711 -0.196974,0.55251 -0.107053,1.35253 0.449451,2.0139 1.479073,1.75778 1.244586,2.06647 -1.168919,4.34906 -1.689125,1.59751 -2.123817,1.913 -3.798261,0.95551 l -1.159184,-0.19372 -1.039144,0.11576 c -0.81636,0.43552 -1.275183,1.06015 -1.414033,1.91771 -0.189344,1.1694 -1.01412,1.85042 -1.984933,1.85042 -1.813363,0.0938 -2.657718,0.0134 -3.493185,4e-5 z m 5.275002,-7.65382 c 1.887072,-0.90469 3.830969,-2.86925 4.685082,-4.73488 0.538605,-1.17647 0.682996,-1.91428 0.693488,-3.5436 0.01155,-1.7932 -0.09502,-2.2777 -0.828871,-3.76836 -1.005685,-2.04284 -2.689943,-3.67973 -4.762513,-4.62859 -2.150479,-0.98452 -4.94482,-0.97393 -6.989601,0.0265 -2.11666,1.03559 -3.748409,2.58995 -4.683651,4.46154 -0.716736,1.43432 -0.810557,1.88679 -0.810557,3.90911 0,1.91981 0.108099,2.50396 0.673221,3.63802 2.404381,4.82496 7.520009,6.79927 12.023402,4.64027 z"
         id="path4687-4"
         inkscape:connector-curvature="0" />
      <path
         sodipodi:nodetypes="csczcsczcscccsccssszsscccscsscsscscccccsccscccccczcsscssssczssszssscsscssczsssscccczscccsscc"
         style="fill:#110609;stroke-width:0.26458332"
         d="m 78.809421,153.54175 c -0.869535,0 -1.948578,-1.05985 -2.161149,-2.12271 -0.121514,-0.60757 -0.431785,-0.95061 -1.226491,-1.35604 0,0 -0.907044,-0.40731 -1.322744,-0.40909 -0.415701,-0.002 -0.904069,0.44719 -0.904069,0.44719 -1.592651,0.79541 -2.261912,0.56537 -4.244864,-1.45906 -1.865674,-1.9047 -2.005982,-2.44909 -1.058333,-4.10632 0,0 0.415403,-0.74777 0.419916,-1.13293 0.0045,-0.38516 -0.403884,-1.42054 -0.403884,-1.42054 -0.39832,-0.73607 -0.762465,-0.53676 -1.625228,-0.8212 -0.733068,-0.24167 -1.5975,-0.92032 -1.894472,-1.40866 -0.332855,-1.42363 -0.228755,-2.80657 -0.23558,-3.97619 0.0857,-0.48236 0.159588,-0.73728 0.2485,-1.01742 0.194034,-0.61135 1.276261,-1.22878 2.35778,-1.49554 1.08912,-0.26864 1.290797,-0.53493 1.478283,-1.53431 0.115629,-0.61636 0.0062,-1.11121 -0.388885,-1.75936 -0.887107,-1.45513 -0.729971,-2.13432 0.901488,-3.89649 0.799276,-0.86332 1.828626,-1.72516 2.287442,-1.91521 0.76269,-0.31591 1.006699,-0.3898 2.247094,0.34673 0,0 0.781899,0.59068 1.21243,0.59204 0.430531,0.001 1.011915,-0.2871 1.011915,-0.2871 0.645113,-0.37756 0.954308,-0.82271 1.230665,-1.77177 0.254956,-0.87557 0.433981,-1.21599 0.777247,-1.50993 0.328056,-0.28617 0.677592,-0.41704 0.892751,-0.57015 0.633563,-0.23956 2.122637,-0.33745 3.11168,-0.27864 0.85755,0.0748 1.247094,0.35001 1.330541,0.39574 0.275149,0.15081 0.504317,0.20611 0.923156,0.62495 0.504752,0.50476 0.70306,0.84045 0.70306,1.37322 0,0.98117 0.902877,2.15837 1.867275,2.15837 0.380851,0 1.102541,-0.30496 1.603755,-0.6777 0.686972,-0.51087 1.565559,-0.55608 2.162385,-0.43943 1.238286,0.24201 3.758042,3.10686 3.966754,4.14461 0.100227,0.49835 -0.363374,1.32979 -0.797288,1.97015 -1.223666,1.0595 -1.063233,1.90699 -0.401018,2.73826 0.145679,0.18286 0.883351,0.21629 1.497531,0.31757 1.229209,0.20271 1.507392,0.38284 1.954056,0.80343 0.715516,0.68401 0.890741,3.30991 0.59867,5.29832 -0.684733,1.46704 -1.519705,1.66072 -2.606529,1.87864 -1.83502,0.32839 -2.403663,1.49978 -1.36751,2.81704 1.438458,1.8287 1.233578,2.63936 -1.270682,5.02775 -1.798052,1.71486 -2.298836,1.8282 -3.85444,0.87233 -0.835427,-0.51335 -1.159359,-0.5831 -1.719307,-0.37021 -1.030132,0.39166 -1.616948,1.02388 -1.616948,1.74206 0,0.86346 -1.183012,2.12078 -2.24422,2.1876 -0.797944,0.029 -0.933679,0.0243 -1.732882,0.028 -0.824015,-0.0288 -1.105867,-0.0214 -1.707851,-0.028 z m 4.194,-1.07749 c 0.458411,-0.36059 0.755125,-0.91134 0.866623,-1.60862 0.153154,-0.95776 0.302901,-1.12569 1.548607,-1.73665 0,0 0.813165,-0.39351 1.26094,-0.36924 0.447776,0.0243 1.144536,0.39036 1.144536,0.39036 0.56453,0.38361 1.305961,0.69747 1.647624,0.69747 0.767304,0 3.753873,-2.8986 3.753873,-3.6433 0,-0.28085 -0.357188,-1.00372 -0.79375,-1.60638 -0.903137,-1.24674 -0.98202,-1.39273 -0.418902,-2.82011 0.302977,-0.76798 0.465222,-0.76913 1.649661,-1.14127 1.954184,-0.61399 2.473407,-0.71565 2.473407,-3.36176 0,-2.60523 -0.355258,-3.08314 -2.450774,-3.29691 -1.319226,-0.13457 -1.251067,-0.15632 -1.934319,-1.19243 0,0 -0.267832,-1.12601 -0.193217,-1.5894 0.07462,-0.46339 0.71284,-0.96543 0.71284,-0.96543 1.333649,-1.55806 1.251477,-2.08934 -0.61128,-3.9521 -1.831192,-1.83119 -2.352243,-1.92849 -3.986745,-0.74446 0,0 -0.688784,0.41057 -1.151261,0.45437 -0.462478,0.0438 -1.23874,-0.22052 -1.23874,-0.22052 -1.18471,-0.55489 -1.263176,-0.6566 -1.392653,-1.80533 -0.207291,-1.83907 -1.027044,-2.42539 -3.391047,-2.42539 -1.610736,0 -1.933151,0.0838 -2.498788,0.64943 -0.465275,0.46528 -0.408594,0.9799 -0.649431,1.67111 -0.208804,0.59927 -0.352808,0.91799 -1.335711,1.40742 -1.669397,0.83127 -1.692394,0.90893 -2.741813,0.10849 -1.123323,-0.8568 -1.690562,-0.83381 -3.009965,0.12196 -1.058114,0.76649 -2.23706,2.33244 -2.23706,2.8953 0,0.15583 0.156513,0.93577 0.592803,1.52903 0,0 0.338665,0.54568 0.392349,1.0369 0.05368,0.49122 -0.256721,1.52877 -0.256721,1.52877 -0.621116,1.40445 -0.726594,1.09445 -1.607382,1.37007 -0.617224,0.19315 -1.13633,0.32021 -1.582485,0.76637 -0.579509,0.57951 -0.649431,0.87365 -0.649431,2.732 0,1.81836 0.07553,2.1532 0.595312,2.6393 0.335329,0.31359 1.040097,0.59372 1.613783,0.64143 1.04957,0.0873 1.191541,0.28251 1.941599,2.66977 0.08658,0.27557 -0.158819,0.90992 -0.596149,1.54099 0,0 -0.412218,0.69574 -0.434283,1.0893 -0.02206,0.39357 0.193628,0.91668 0.193628,0.91668 0.713167,1.32427 2.691907,2.99741 3.536381,2.99021 0.379694,-0.003 0.988009,-0.23871 1.351812,-0.52328 0.848039,-0.66335 0.966221,-0.6578 2.745202,0.12895 1.391849,0.61555 1.488131,0.71701 1.488131,1.5683 0,1.41006 0.944238,2.00692 3.174999,2.00692 1.400824,0 1.929434,-0.11698 2.477797,-0.54833 z"
         id="path4685-6"
         inkscape:connector-curvature="0" />
    </g>
  </g>
</svg>
