<?xml version="1.0" encoding="UTF-8" standalone="no"?>
<svg
   xmlns:dc="http://purl.org/dc/elements/1.1/"
   xmlns:cc="http://creativecommons.org/ns#"
   xmlns:rdf="http://www.w3.org/1999/02/22-rdf-syntax-ns#"
   xmlns:svg="http://www.w3.org/2000/svg"
   xmlns="http://www.w3.org/2000/svg"
   xmlns:sodipodi="http://sodipodi.sourceforge.net/DTD/sodipodi-0.dtd"
   xmlns:inkscape="http://www.inkscape.org/namespaces/inkscape"
   id="b"
   viewBox="0 0 72 72"
   version="1.1"
   sodipodi:docname="Export.svg"
   inkscape:version="0.92.4 (5da689c313, 2019-01-14)">
  <metadata
     id="metadata13">
    <rdf:RDF>
      <cc:Work
         rdf:about="">
        <dc:format>image/svg+xml</dc:format>
        <dc:type
           rdf:resource="http://purl.org/dc/dcmitype/StillImage" />
      </cc:Work>
    </rdf:RDF>
  </metadata>
  <defs
     id="defs13" />
  <sodipodi:namedview
     pagecolor="#ffffff"
     bordercolor="#666666"
     borderopacity="1"
     objecttolerance="10"
     gridtolerance="10"
     guidetolerance="10"
     inkscape:pageopacity="0"
     inkscape:pageshadow="2"
     inkscape:window-width="2560"
     inkscape:window-height="1351"
     id="namedview11"
     showgrid="false"
     inkscape:zoom="8"
     inkscape:cx="-4.089312"
     inkscape:cy="30.926204"
     inkscape:window-x="-9"
     inkscape:window-y="-9"
     inkscape:window-maximized="1"
     inkscape:current-layer="b" />
  <path
     id="path2-5"
     d="m 59.707259,30.681904 h -8.938157 v 5.304019 h 8.938157 c 2.659082,0 4.721462,1.356945 4.721462,2.525598 v 23.520674 c 0,1.167769 -2.06238,2.52648 -4.721462,2.52648 H 25.91977 c -2.658197,0 -4.720576,-1.358711 -4.720576,-2.52648 V 38.514172 c 0,-1.168651 2.062379,-2.526481 4.720576,-2.526481 h 8.937274 v -5.30402 H 25.91977 c -5.621376,0 -10.024596,3.439657 -10.024596,7.830501 v 23.518906 c 0,4.391729 4.40322,7.829617 10.024596,7.829617 h 33.789257 c 5.619609,0 10.024596,-3.439657 10.024596,-7.829617 V 38.514172 C 69.732768,34.12156 65.329519,30.681904 59.707259,30.681904 Z"
     inkscape:connector-curvature="0"
     style="fill:#ffffff;fill-opacity:1;stroke:#000000;stroke-width:1.45500004;stroke-miterlimit:4;stroke-dasharray:none;stroke-opacity:1" />
  <path
     id="path4-3"
     d="m 34.964893,25.450488 c 0.678914,0 1.356944,-0.259898 1.874971,-0.777923 l 3.320316,-3.319432 v 11.515909 5.30402 10.161617 c 0,1.463909 1.187216,2.65201 2.652009,2.65201 1.464794,0 2.65201,-1.188101 2.65201,-2.65201 V 38.173947 32.869926 21.174564 l 3.49977,3.498885 c 0.518025,0.518026 1.196939,0.777922 1.87497,0.777922 0.67803,0 1.356944,-0.259896 1.874971,-0.777922 1.036051,-1.034284 1.036051,-2.71389 0,-3.749057 l -7.918017,-7.918019 c -0.518027,-0.518025 -1.196941,-0.77527 -1.874088,-0.77527 -0.0071,0 -0.01415,0 -0.02033,0 -0.0062,0 -0.01326,0 -0.01945,0 -0.678914,0 -1.356061,0.257245 -1.874087,0.77527 l -7.918016,7.918019 c -1.036052,1.035167 -1.036052,2.714773 0,3.749057 0.518024,0.517141 1.195171,0.777039 1.874969,0.777039 z"
     inkscape:connector-curvature="0"
     style="fill:#ffffff;fill-opacity:1;stroke:#000000;stroke-width:1.45500004;stroke-miterlimit:4;stroke-dasharray:none;stroke-opacity:1" />
  <g
     id="g829"
     transform="matrix(0.45300142,0,0,0.45300142,-0.4061104,-1.1547104)">
    <path
       id="path2"
       style="fill:#27a0db"
       d="m 36.32,35.81 c -0.02,-0.11 2.96,-2.8 2.96,-2.8 l 3.99,1.23 1.32,3.19 2.55,3.24 1.99,0.09 15.22,15.2 0.95,2.31 -0.45,2.33 -3.06,3.19 -2.5,1.58 -4.86,-1.98 -8.29,-8.12 -6.35,-7.23 -0.45,-1.83 -1.38,-0.99 -1.68,-0.5 -2.14,-2.78 c 0,0 -0.99,-1.68 -0.8,-2.42 0.19,-0.74 2.96,-3.8 2.96,-3.8"
       inkscape:connector-curvature="0" />
    <path
       id="path4"
       style="fill:#f6f6f6"
       d="M 33.88,37.63 16.99,20.27 9.91,14.75 l 4.75,-4.64 6.56,7.43 12.15,12.24 9.17,-8.98 0.63,-5.39 3.48,-4.45 4.9,-2.27 3.48,-0.09 2.89,1.86 -7.06,8.37 1.25,2.55 2.44,0.37 c 0,0 6.71,-7.7 6.84,-7.71 0.13,-0.01 2.01,1.49 2.01,1.49 l 0.84,4.83 -0.58,2.65 -3.76,4.84 -3.71,2.44 -4.42,-0.69 -7.25,6.19 -3.24,-2.25 -3,0.76 -4.38,3.41"
       inkscape:connector-curvature="0" />
    <path
       id="path6"
       style="fill:#f6f6f6"
       d="m 28.86,33.55 4.57,4.55 0.61,3.75 1.32,2.55 -8.09,8.44 0.28,2.94 -3.11,5.25 -4.04,3.39 -3.15,0.28 -3.6,-0.8 -0.78,-0.75 5.87,-8.7 -0.3,-0.99 -3.19,-1.55 -1.17,1.86 -5.78,6.2 -1.84,-2.91 -0.82,-2.7 0.39,-4.16 c 0,0 3.52,-3.32 3.56,-3.37 0.04,-0.05 3,-2.72 3,-2.72 l 3.97,-0.61 1.81,0.04 10.49,-10.01 z"
       inkscape:connector-curvature="0" />
    <path
       id="path8"
       style="fill:#9a9999"
       d="M 64.49,55.04 49.4,39.82 48.7,39.11 47.71,39.25 c -0.06,0 -0.12,0.01 -0.18,0.01 -0.48,0 -0.98,-0.23 -1.37,-0.62 -0.44,-0.45 -0.67,-1.05 -0.6,-1.56 l 0.1,-0.69 5.68,-5.36 c 0.87,0.26 1.77,0.39 2.66,0.39 2.42,0 4.63,-0.94 6.22,-2.64 l 2.95,-3.15 c 2.92,-3.12 2.95,-8.09 0.08,-11.58 l -1.45,-1.76 -1.56,1.66 -6.38,6.82 c -0.1,0.11 -0.26,0.12 -0.34,0.12 -0.19,0 -0.39,-0.08 -0.55,-0.22 l -1.03,-0.94 c -0.16,-0.14 -0.25,-0.33 -0.26,-0.52 0,-0.12 0.03,-0.22 0.09,-0.29 l 6.38,-6.83 1.59,-1.7 -1.91,-1.32 c -1.6,-1.1 -3.45,-1.68 -5.35,-1.68 0,0 0,0 0,0 -2.43,0 -4.65,0.94 -6.24,2.65 l -2.95,3.15 c -1.86,1.99 -2.58,4.77 -2.02,7.5 l -8.1,7.64 -12.18,-12.29 -0.45,-0.57 -4.4,-5.55 -1.39,-1.75 -1.59,1.57 -3.38,3.35 -1.59,1.57 1.74,1.4 5.51,4.45 0.56,0.45 12.06,12.17 -10.24,9.65 c -0.8,-0.21 -1.62,-0.32 -2.45,-0.32 -2.7,0 -5.16,1.15 -6.77,3.15 l -2.7,3.36 c -2.68,3.34 -2.31,8.29 0.86,11.51 l 1.58,1.61 1.41,-1.76 5.84,-7.28 c 0.11,-0.14 0.32,-0.16 0.4,-0.16 0.18,0 0.37,0.07 0.52,0.18 l 1.1,0.85 c 0.17,0.13 0.28,0.31 0.3,0.49 0.01,0.11 0,0.2 -0.06,0.27 l -5.84,7.28 -1.47,1.83 2.04,1.16 c 1.45,0.82 3.08,1.26 4.73,1.26 2.7,0 5.17,-1.15 6.78,-3.16 l 2.69,-3.36 c 1.58,-1.97 2.14,-4.51 1.6,-7 l 7.32,-6.94 0.11,0.11 0.95,-0.09 c 0,0 0.09,0 0.13,0 0.48,0 0.98,0.23 1.37,0.62 0.43,0.43 0.66,1.01 0.6,1.51 l -0.1,0.95 0.67,0.68 15.15,15.28 c 1.03,1.04 2.39,1.61 3.83,1.61 1.36,0 2.63,-0.52 3.59,-1.46 l 2.54,-2.52 c 2.02,-2 1.98,-5.33 -0.08,-7.41 z M 43.52,21.34 c -0.84,-2.32 -0.47,-4.93 1.23,-6.76 l 2.94,-3.15 c 1.26,-1.34 2.99,-2.01 4.78,-2.01 1.45,0 2.93,0.44 4.22,1.33 l -6.38,6.83 c -0.94,1.01 -0.82,2.65 0.27,3.65 l 1.03,0.94 c 0.54,0.5 1.23,0.75 1.9,0.75 0.67,0 1.33,-0.25 1.8,-0.76 l 6.38,-6.82 c 2.21,2.68 2.27,6.51 0,8.94 l -2.94,3.15 c -1.25,1.34 -2.98,2 -4.76,2 -1.05,0 -2.12,-0.23 -3.12,-0.7 l -6.45,6.08 -0.64,-0.65 c -1.03,-1.04 -2.39,-1.61 -3.83,-1.61 -0.76,0 -1.5,0.16 -2.16,0.47 l -3.21,-3.24 8.95,-8.43 z m -26.81,-2.36 -5.51,-4.45 3.38,-3.35 4.4,5.55 17.18,17.47 -2.12,2.12 -17.33,-17.35 z m 9.58,33.01 c 0,0 -0.09,0.08 -0.14,0.13 0.82,2.13 0.57,4.54 -0.89,6.36 l -2.7,3.36 c -1.27,1.59 -3.21,2.41 -5.22,2.41 -1.27,0 -2.57,-0.33 -3.75,-1 l 5.84,-7.28 c 0.86,-1.07 0.6,-2.69 -0.58,-3.59 l -1.1,-0.85 c -0.52,-0.4 -1.14,-0.6 -1.74,-0.6 -0.75,0 -1.48,0.31 -1.96,0.9 L 8.21,59.11 C 5.78,56.63 5.4,52.84 7.48,50.25 l 2.7,-3.36 c 1.27,-1.59 3.2,-2.4 5.21,-2.4 0.99,0 1.99,0.2 2.95,0.6 l 11.15,-10.51 3.34,3.36 c -0.34,0.71 -0.51,1.49 -0.49,2.31 0.03,1.38 0.59,2.69 1.58,3.69 l 0.42,0.43 -8.04,7.62 z m 36.87,9.05 -2.54,2.52 c -0.6,0.59 -1.38,0.88 -2.18,0.88 -0.86,0 -1.74,-0.34 -2.41,-1.02 L 40.88,48.14 c 0.11,-1.06 -0.28,-2.24 -1.17,-3.13 -0.8,-0.8 -1.82,-1.22 -2.79,-1.22 -0.11,0 -0.22,0 -0.33,0.02 L 35.32,42.53 C 34.04,41.24 33.99,39.21 35.2,37.97 l 2.35,-2.35 v 0 c 0,0 0.21,-0.2 0.21,-0.2 0.6,-0.59 1.38,-0.88 2.18,-0.88 0.86,0 1.74,0.34 2.41,1.02 l 1.21,1.23 c -0.16,1.1 0.23,2.33 1.15,3.26 0.8,0.8 1.82,1.22 2.79,1.22 0.15,0 0.31,-0.01 0.46,-0.03 l 15.09,15.22 c 1.29,1.3 1.33,3.36 0.09,4.58 z"
       inkscape:connector-curvature="0" />
  </g>
</svg>
