<?xml version="1.0" encoding="UTF-8"?><svg id="b" xmlns="http://www.w3.org/2000/svg" viewBox="0 0 72 72"><path d="M36.32,35.81c-.02-.11,2.96-2.8,2.96-2.8l3.99,1.23,1.32,3.19,2.55,3.24,1.99,.09,15.22,15.2,.95,2.31-.45,2.33-3.06,3.19-2.5,1.58-4.86-1.98-8.29-8.12-6.35-7.23-.45-1.83-1.38-.99-1.68-.5-2.14-2.78s-.99-1.68-.8-2.42,2.96-3.8,2.96-3.8" style="fill:#27a0db;"/><path d="M33.88,37.63L16.99,20.27l-7.08-5.52,4.75-4.64,6.56,7.43,12.15,12.24,9.17-8.98,.63-5.39,3.48-4.45,4.9-2.27,3.48-.09,2.89,1.86-7.06,8.37,1.25,2.55,2.44,.37s6.71-7.7,6.84-7.71,2.01,1.49,2.01,1.49l.84,4.83-.58,2.65-3.76,4.84-3.71,2.44-4.42-.69-7.25,6.19-3.24-2.25-3,.76-4.38,3.41" style="fill:#f6f6f6;"/><path d="M28.86,33.55l4.57,4.55,.61,3.75,1.32,2.55-8.09,8.44,.28,2.94-3.11,5.25-4.04,3.39-3.15,.28-3.6-.8-.78-.75,5.87-8.7-.3-.99-3.19-1.55-1.17,1.86-5.78,6.2-1.84-2.91-.82-2.7,.39-4.16s3.52-3.32,3.56-3.37,3-2.72,3-2.72l3.97-.61,1.81,.04,10.49-10.01Z" style="fill:#f6f6f6;"/><path d="M64.49,55.04l-15.09-15.22-.7-.71-.99,.14c-.06,0-.12,.01-.18,.01-.48,0-.98-.23-1.37-.62-.44-.45-.67-1.05-.6-1.56l.1-.69,5.68-5.36c.87,.26,1.77,.39,2.66,.39,2.42,0,4.63-.94,6.22-2.64l2.95-3.15c2.92-3.12,2.95-8.09,.08-11.58l-1.45-1.76-1.56,1.66-6.38,6.82c-.1,.11-.26,.12-.34,.12-.19,0-.39-.08-.55-.22l-1.03-.94c-.16-.14-.25-.33-.26-.52,0-.12,.03-.22,.09-.29l6.38-6.83,1.59-1.7-1.91-1.32c-1.6-1.1-3.45-1.68-5.35-1.68,0,0,0,0,0,0-2.43,0-4.65,.94-6.24,2.65l-2.95,3.15c-1.86,1.99-2.58,4.77-2.02,7.5l-8.1,7.64-12.18-12.29-.45-.57-4.4-5.55-1.39-1.75-1.59,1.57-3.38,3.35-1.59,1.57,1.74,1.4,5.51,4.45,.56,.45,12.06,12.17-10.24,9.65c-.8-.21-1.62-.32-2.45-.32-2.7,0-5.16,1.15-6.77,3.15l-2.7,3.36c-2.68,3.34-2.31,8.29,.86,11.51l1.58,1.61,1.41-1.76,5.84-7.28c.11-.14,.32-.16,.4-.16,.18,0,.37,.07,.52,.18l1.1,.85c.17,.13,.28,.31,.3,.49,.01,.11,0,.2-.06,.27l-5.84,7.28-1.47,1.83,2.04,1.16c1.45,.82,3.08,1.26,4.73,1.26,2.7,0,5.17-1.15,6.78-3.16l2.69-3.36c1.58-1.97,2.14-4.51,1.6-7l7.32-6.94,.11,.11,.95-.09s.09,0,.13,0c.48,0,.98,.23,1.37,.62,.43,.43,.66,1.01,.6,1.51l-.1,.95,.67,.68,15.15,15.28c1.03,1.04,2.39,1.61,3.83,1.61,1.36,0,2.63-.52,3.59-1.46l2.54-2.52c2.02-2,1.98-5.33-.08-7.41ZM43.52,21.34c-.84-2.32-.47-4.93,1.23-6.76l2.94-3.15c1.26-1.34,2.99-2.01,4.78-2.01,1.45,0,2.93,.44,4.22,1.33l-6.38,6.83c-.94,1.01-.82,2.65,.27,3.65l1.03,.94c.54,.5,1.23,.75,1.9,.75s1.33-.25,1.8-.76l6.38-6.82c2.21,2.68,2.27,6.51,0,8.94l-2.94,3.15c-1.25,1.34-2.98,2-4.76,2-1.05,0-2.12-.23-3.12-.7l-6.45,6.08-.64-.65c-1.03-1.04-2.39-1.61-3.83-1.61-.76,0-1.5,.16-2.16,.47l-3.21-3.24,8.95-8.43Zm-26.81-2.36l-5.51-4.45,3.38-3.35,4.4,5.55,17.18,17.47-2.12,2.12L16.71,18.97Zm9.58,33.01s-.09,.08-.14,.13c.82,2.13,.57,4.54-.89,6.36l-2.7,3.36c-1.27,1.59-3.21,2.41-5.22,2.41-1.27,0-2.57-.33-3.75-1l5.84-7.28c.86-1.07,.6-2.69-.58-3.59l-1.1-.85c-.52-.4-1.14-.6-1.74-.6-.75,0-1.48,.31-1.96,.9l-5.84,7.28c-2.43-2.48-2.81-6.27-.73-8.86l2.7-3.36c1.27-1.59,3.2-2.4,5.21-2.4,.99,0,1.99,.2,2.95,.6l11.15-10.51,3.34,3.36c-.34,.71-.51,1.49-.49,2.31,.03,1.38,.59,2.69,1.58,3.69l.42,.43-8.04,7.62Zm36.87,9.05l-2.54,2.52c-.6,.59-1.38,.88-2.18,.88-.86,0-1.74-.34-2.41-1.02l-15.15-15.28c.11-1.06-.28-2.24-1.17-3.13-.8-.8-1.82-1.22-2.79-1.22-.11,0-.22,0-.33,.02l-1.27-1.28c-1.28-1.29-1.33-3.32-.12-4.56l2.35-2.35h0s.21-.2,.21-.2c.6-.59,1.38-.88,2.18-.88,.86,0,1.74,.34,2.41,1.02l1.21,1.23c-.16,1.1,.23,2.33,1.15,3.26,.8,.8,1.82,1.22,2.79,1.22,.15,0,.31-.01,.46-.03l15.09,15.22c1.29,1.3,1.33,3.36,.09,4.58Z" style="fill:#9a9999;"/></svg>