<?xml version="1.0" encoding="UTF-8" standalone="no"?>
<svg
   version="1.1"
   viewBox="0,0,1024,1024"
   id="svg8"
   sodipodi:docname="add_sound.svg"
   inkscape:version="1.2.1 (9c6d41e410, 2022-07-14)"
   xmlns:inkscape="http://www.inkscape.org/namespaces/inkscape"
   xmlns:sodipodi="http://sodipodi.sourceforge.net/DTD/sodipodi-0.dtd"
   xmlns="http://www.w3.org/2000/svg"
   xmlns:svg="http://www.w3.org/2000/svg">
  <defs
     id="defs12" />
  <sodipodi:namedview
     id="namedview10"
     pagecolor="#ffffff"
     bordercolor="#000000"
     borderopacity="0.25"
     inkscape:showpageshadow="2"
     inkscape:pageopacity="0.0"
     inkscape:pagecheckerboard="0"
     inkscape:deskcolor="#d1d1d1"
     showgrid="false"
     inkscape:zoom="0.82714844"
     inkscape:cx="512"
     inkscape:cy="512.60449"
     inkscape:window-width="1920"
     inkscape:window-height="1027"
     inkscape:window-x="-8"
     inkscape:window-y="-8"
     inkscape:window-maximized="1"
     inkscape:current-layer="svg8" />
  <desc
     id="desc2">surround_sound icon - Licensed under Apache License v2.0 (http://www.apache.org/licenses/LICENSE-2.0) - Created with Iconfu.com - Derivative work of Material icons (Copyright Google Inc.)</desc>
  <path
     id="path4"
     style="mix-blend-mode:normal;fill:#27a0db;fill-rule:nonzero"
     d="M 170.66992 170.66992 C 123.73997 170.66992 85.330078 209.07005 85.330078 256 L 85.330078 768 C 85.330078 814.92995 123.73997 853.33008 170.66992 853.33008 L 853.33008 853.33008 C 900.26003 853.33008 938.66992 814.92995 938.66992 768 L 938.66992 256 C 938.66992 209.07005 900.26003 170.66992 853.33008 170.66992 L 170.66992 170.66992 z M 270.50977 270.50977 L 330.66992 330.66992 C 281.17997 381.01987 256 446.29007 256 512 C 256 577.70993 281.16989 642.99021 331.08984 692.91016 L 270.92969 753.07031 C 203.93975 686.94038 170.66992 599.46991 170.66992 512 C 170.66992 424.53009 203.94983 337.0697 270.50977 270.50977 z M 753.07031 270.92969 C 820.06025 337.05962 853.33008 424.53009 853.33008 512 C 853.33008 599.46991 820.05017 686.9303 753.49023 753.49023 L 693.33008 693.33008 C 742.82003 642.98013 768 577.70993 768 512 C 768 446.29007 742.83011 381.00979 692.91016 331.08984 L 753.07031 270.92969 z M 469.33008 341.33008 L 554.66992 341.33008 L 554.66992 469.33008 L 682.66992 469.33008 L 682.66992 555.08984 L 554.66992 555.08984 L 554.66992 683.08984 L 469.33008 683.08984 L 469.33008 555.08984 L 341.33008 555.08984 L 341.33008 469.33008 L 469.33008 469.33008 L 469.33008 341.33008 z " />
</svg>
