<?xml version="1.0" encoding="UTF-8" standalone="no"?>
<svg
   version="1.1"
   viewBox="0,0,1024,1024"
   id="svg8"
   sodipodi:docname="icon.svg"
   inkscape:version="1.2.1 (9c6d41e410, 2022-07-14)"
   xmlns:inkscape="http://www.inkscape.org/namespaces/inkscape"
   xmlns:sodipodi="http://sodipodi.sourceforge.net/DTD/sodipodi-0.dtd"
   xmlns="http://www.w3.org/2000/svg"
   xmlns:svg="http://www.w3.org/2000/svg">
  <defs
     id="defs12" />
  <sodipodi:namedview
     id="namedview10"
     pagecolor="#ffffff"
     bordercolor="#000000"
     borderopacity="0.25"
     inkscape:showpageshadow="2"
     inkscape:pageopacity="0.0"
     inkscape:pagecheckerboard="true"
     inkscape:deskcolor="#d1d1d1"
     showgrid="false"
     inkscape:zoom="0.82714844"
     inkscape:cx="490.23849"
     inkscape:cy="507.7686"
     inkscape:window-width="1920"
     inkscape:window-height="1027"
     inkscape:window-x="-8"
     inkscape:window-y="-8"
     inkscape:window-maximized="1"
     inkscape:current-layer="svg8" />
  <desc
     id="desc2">library_music icon - Licensed under Apache License v2.0 (http://www.apache.org/licenses/LICENSE-2.0) - Created with Iconfu.com - Derivative work of Material icons (Copyright Google Inc.)</desc>
  <circle
     style="fill:#ffffff;stroke-width:1.85715"
     id="path2353"
     cx="512"
     cy="512"
     r="502.93271" />
  <g
     fill="#013357"
     fill-rule="nonzero"
     style="mix-blend-mode: normal"
     id="g6">
    <path
       d="M874.04,874.04c-199.95,199.95 -524.13,199.95 -724.08,0c-199.95,-199.95 -199.95,-524.13 0,-724.08c199.95,-199.95 524.13,-199.95 724.08,0c199.95,199.95 199.95,524.13 0,724.08zM855.94,168.06c-189.95,-189.95 -497.92,-189.95 -687.87,0c-189.95,189.95 -189.95,497.92 0,687.87c189.95,189.95 497.92,189.95 687.87,0c189.95,-189.95 189.95,-497.92 0,-687.87zM838.74,838.74c-180.45,180.45 -473.03,180.45 -653.48,0c-180.45,-180.45 -180.45,-473.03 0,-653.48c180.45,-180.45 473.03,-180.45 653.48,0c180.45,180.45 180.45,473.03 0,653.48zM712.23,261.7h-300.35c-27.53,0 -50.06,22.53 -50.06,50.06v300.35c0,27.53 22.53,50.06 50.06,50.06h300.35c27.53,0 50.06,-22.53 50.06,-50.06v-300.35c0,-27.53 -22.53,-50.06 -50.06,-50.06zM311.77,361.82h-50.06v350.41c0,27.53 22.53,50.06 50.06,50.06h350.41v-50.06h-350.41zM662.18,386.86h-75.09v137.66c0,34.54 -28.03,62.58 -62.58,62.58c-34.54,0 -62.57,-28.03 -62.57,-62.58c0,-34.54 28.03,-62.57 62.57,-62.57c14.27,0 27.03,4.76 37.54,12.76v-137.92h100.12z"
       id="path4" />
  </g>
</svg>
