<svg version="1.1" xmlns="http://www.w3.org/2000/svg" xmlns:xlink="http://www.w3.org/1999/xlink" viewBox="0,0,1024,1024">
	<desc>volume_off icon - Licensed under Apache License v2.0 (http://www.apache.org/licenses/LICENSE-2.0) - Created with Iconfu.com - Derivative work of Material icons (Copyright Google Inc.)</desc>
	<g fill="#27a0db" fill-rule="nonzero" style="mix-blend-mode: normal">
		<path d="M896,841.81l-54.19,54.19l-87.04,-87.47c-45.23,36.69 -98.56,64 -157.44,77.23v-87.89c35.41,-10.67 67.41,-28.16 96,-50.35l-181.33,-181.33v287.14l-213.33,-213.33h-170.67v-256h201.81l-201.81,-201.81l54.19,-54.19zM597.33,225.71v-87.9c171.09,38.83 298.67,191.58 298.67,374.19c0,64 -15.79,124.16 -43.95,177.07l-64.42,-64.43c14.51,-34.99 23.04,-72.53 23.04,-112.64c0,-135.25 -90.03,-249.6 -213.34,-286.29zM701.87,538.88l-104.54,-104.53v-94.3c63.15,31.57 106.67,96.43 106.67,171.95c0,9.39 -0.85,18.35 -2.13,26.88zM512,349.01l-89.17,-89.17l89.17,-89.17z"/>
	</g>
</svg>