<?xml version="1.0" encoding="UTF-8" standalone="no"?>
<svg
   xmlns:dc="http://purl.org/dc/elements/1.1/"
   xmlns:cc="http://creativecommons.org/ns#"
   xmlns:rdf="http://www.w3.org/1999/02/22-rdf-syntax-ns#"
   xmlns:svg="http://www.w3.org/2000/svg"
   xmlns="http://www.w3.org/2000/svg"
   width="15mm"
   height="15mm"
   viewBox="0 0 15 15"
   version="1.1"
   id="svg918">
  <defs
     id="defs912" />
  <metadata
     id="metadata915">
    <rdf:RDF>
      <cc:Work
         rdf:about="">
        <dc:format>image/svg+xml</dc:format>
        <dc:type
           rdf:resource="http://purl.org/dc/dcmitype/StillImage" />
        <dc:title></dc:title>
      </cc:Work>
    </rdf:RDF>
  </metadata>
  <g
     id="layer1"
     transform="translate(-42.399297,-39.829174)">
    <g
       id="g894"
       transform="matrix(0.16784934,0,0,0.16784934,43.065482,44.113976)">
      <path
         style="fill:#333333;fill-opacity:1;stroke-width:0.26458332"
         d="m 41.804125,61.390767 c -1.730779,-1.330351 -1.351323,-1.954444 -1.397913,-6.721171 -0.04659,-4.766727 -0.216638,-8.328717 0.278102,-12.456709 0.751669,-1.792618 1.650915,-1.509259 6.984185,-1.414079 5.33327,0.09518 15.622655,-0.03173 23.433973,-0.04776 1.921127,-0.03279 1.581716,3.282937 1.581536,5.685084 2.836533,-1.265075 3.271829,-1.486524 5.284306,-2.388245 2.012477,-0.901721 4.42362,-1.976204 5.829991,-2.544643 0.03977,4.337767 -0.0718,7.556797 -0.07131,10.510838 4.89e-4,2.954042 -0.04677,5.896175 -0.08919,8.670744 -3.761706,-1.205727 -6.762034,-3.06092 -11.037383,-4.944339 -0.325306,2.036037 0.618948,5.073402 -2.042286,5.895907 -9.577966,-0.03588 -19.179578,0.147835 -28.754005,-0.24563 z m 2.359181,-22.206492 c -3.675778,-1.063684 -6.424753,-4.811149 -6.026838,-8.668189 -0.215981,-4.5154 4.018524,-8.378308 8.441649,-8.277346 4.278502,-0.290736 8.45369,3.29158 8.618594,7.613303 0.352471,2.909245 -0.650668,6.00721 -3.040622,7.812473 -2.18368,1.672703 -5.346152,2.558566 -7.992783,1.519759 z m 3.462406,-6.205898 c 2.789047,-1.135036 1.015804,-5.427819 -1.922961,-4.22962 -2.938765,1.198199 -0.866086,5.364656 1.922961,4.22962 z m 16.970415,6.594616 c -4.055434,-0.645147 -7.479734,-4.181265 -7.713393,-8.317655 -0.171228,-4.435422 3.558481,-9.175376 8.236982,-8.888261 2.789865,-0.303592 5.699628,0.734865 7.37815,3.042336 1.77472,2.330533 2.141189,5.595681 1.361123,8.362352 -1.369734,3.675012 -5.340251,6.229816 -9.262862,5.801228 z m 2.878581,-7.257728 c 1.882507,-2.543555 -1.734915,-5.58634 -3.626928,-2.934587 -1.892013,2.651752 1.744421,5.478142 3.626928,2.934587 z"
         id="path898" />
      <path
         style="fill:#5b5b5b;fill-opacity:1;stroke-width:0.26458332"
         d="M 77.957585,57.420213 72.79821,55.128995 c -0.04853,-2.646936 -0.09707,-5.293871 -0.1456,-7.940807 3.495445,-1.512057 6.828571,-3.174825 10.400428,-4.504671 0.133603,5.675521 0.08347,11.352055 0.06393,17.027916 z M 44.170251,38.687659 c -3.688727,-1.061293 -6.134497,-4.962804 -5.625721,-8.746569 0.373327,-4.37441 4.698405,-7.910312 9.073956,-7.292274 5.224865,0.345863 8.800262,6.497928 6.746108,11.260739 -1.521543,3.917254 -6.201302,6.179613 -10.194343,4.778104 z m 4.214797,-5.600568 c 2.485689,-1.501663 0.449984,-5.864861 -2.302592,-4.978129 -2.291514,0.407348 -3.022436,3.93318 -0.866215,5.028188 0.943613,0.600464 2.272252,0.695755 3.168807,-0.05006 z m 15.007373,5.731923 c -5.219707,-1.222892 -7.766711,-8.23948 -4.588795,-12.552423 2.461848,-3.828496 8.256342,-4.880784 11.822825,-1.976902 3.760093,2.72811 4.457925,8.75787 1.173783,12.130768 -2.085958,2.246374 -5.454109,3.16726 -8.407813,2.398557 z m 3.536204,-5.507274 c 2.942285,-1.219079 1.055623,-6.27025 -1.999657,-5.141337 -2.405327,0.647853 -2.745512,4.307112 -0.361951,5.200738 0.742761,0.332614 1.641615,0.33749 2.361608,-0.0594 z"
         id="path896" />
    </g>
    <path
       style="fill:#dfdfdf;fill-opacity:1;stroke:#000000;stroke-width:0.17901307;stroke-miterlimit:4;stroke-dasharray:none;stroke-opacity:1"
       d="m 45.077426,53.406655 c -0.517864,-0.09625 -1.011792,-0.347562 -1.344883,-0.769007 -0.277287,-0.383455 -0.487286,-0.834764 -0.453169,-1.323942 -0.03231,-0.606688 0.234082,-1.187587 0.689699,-1.582301 1.635727,-1.651833 5.54016,-5.570167 7.196915,-7.200898 0.372775,-0.318779 0.952455,-0.344536 1.380226,-0.140789 0.424122,0.251187 0.740238,0.708114 0.65781,1.220233 0.04056,0.560525 -0.499766,0.883258 -0.821768,1.265719 -1.110354,1.133905 -4.483653,4.461203 -5.603536,5.58566 -0.408392,0.381793 -0.958701,-0.100608 -0.536826,-0.603128 1.197636,-1.20443 4.894115,-4.903553 6.064113,-6.129507 0.345907,-0.323512 -0.367798,-0.904005 -0.675069,-0.519592 -1.620226,1.595405 -5.724718,5.714868 -7.306599,7.34827 -0.351785,0.482192 -0.306294,1.240833 0.153646,1.656033 0.39442,0.44067 1.101538,0.491587 1.586125,0.206529 1.810645,-1.737764 5.848205,-5.80596 7.617366,-7.593885 0.31104,-0.304191 0.57764,-0.616747 0.658914,-1.055619 0.130017,-0.480909 0.07681,-1.008323 -0.11332,-1.464408 -0.167356,-0.320823 -0.414519,-0.625356 -0.716424,-0.848918 -0.34763,-0.221667 -0.746564,-0.411904 -1.178118,-0.393872 -0.508665,-0.04505 -0.989936,0.157458 -1.394527,0.451158 -1.848191,1.798662 -5.589605,5.618974 -7.444859,7.411018 -0.375094,0.324192 -0.888782,-0.210926 -0.567164,-0.579148 1.722518,-1.75332 5.738583,-5.748405 7.483766,-7.479126 0.283131,-0.190803 0.553379,-0.396602 0.899677,-0.467875 0.456451,-0.202019 0.977234,-0.16326 1.468547,-0.135042 0.344059,0.09552 0.692602,0.185146 0.994323,0.371815 0.668507,0.442717 1.245057,1.089681 1.385138,1.89125 0.106475,0.528292 0.117773,1.121627 -0.07037,1.633509 -0.140639,0.458029 -0.408705,0.865817 -0.768729,1.198884 -1.811236,1.822606 -5.889757,5.913734 -7.736315,7.700458 -0.42331,0.307188 -0.97934,0.383756 -1.504597,0.346513 z"
       id="path1478" />
  </g>
  <circle
     r="1.875"
     cy="2.8919492"
     cx="2.5741525"
     id="path4520"
     style="fill:#059b0d;fill-opacity:1;fill-rule:evenodd;stroke:#000000;stroke-width:0.2778125;stroke-linecap:round;stroke-miterlimit:4;stroke-dasharray:none;stroke-dashoffset:0;stroke-opacity:1" />
</svg>
