<?xml version="1.0" encoding="UTF-8" standalone="no"?>
<svg
   xmlns:dc="http://purl.org/dc/elements/1.1/"
   xmlns:cc="http://creativecommons.org/ns#"
   xmlns:rdf="http://www.w3.org/1999/02/22-rdf-syntax-ns#"
   xmlns:svg="http://www.w3.org/2000/svg"
   xmlns="http://www.w3.org/2000/svg"
   id="svg8"
   version="1.1"
   viewBox="0 0 46 46"
   height="46mm"
   width="46mm">
  <defs
     id="defs2" />
  <metadata
     id="metadata5">
    <rdf:RDF>
      <cc:Work
         rdf:about="">
        <dc:format>image/svg+xml</dc:format>
        <dc:type
           rdf:resource="http://purl.org/dc/dcmitype/StillImage" />
        <dc:title></dc:title>
      </cc:Work>
    </rdf:RDF>
  </metadata>
  <g
     transform="translate(-100.65321,-41.351139)"
     id="layer1">
    <g
       transform="translate(62.700697,22.415661)"
       id="g894">
      <path
         id="path898"
         d="m 41.804125,61.390767 c -1.730779,-1.330351 -1.351323,-1.954444 -1.397913,-6.721171 -0.04659,-4.766727 -0.216638,-8.328717 0.278102,-12.456709 0.751669,-1.792618 1.650915,-1.509259 6.984185,-1.414079 5.33327,0.09518 15.622655,-0.03173 23.433973,-0.04776 1.921127,-0.03279 1.581716,3.282937 1.581536,5.685084 2.836533,-1.265075 3.271829,-1.486524 5.284306,-2.388245 2.012477,-0.901721 4.42362,-1.976204 5.829991,-2.544643 0.03977,4.337767 -0.0718,7.556797 -0.07131,10.510838 4.89e-4,2.954042 -0.04677,5.896175 -0.08919,8.670744 -3.761706,-1.205727 -6.762034,-3.06092 -11.037383,-4.944339 -0.325306,2.036037 0.618948,5.073402 -2.042286,5.895907 -9.577966,-0.03588 -19.179578,0.147835 -28.754005,-0.24563 z m 2.359181,-22.206492 c -3.675778,-1.063684 -6.424753,-4.811149 -6.026838,-8.668189 -0.215981,-4.5154 4.018524,-8.378308 8.441649,-8.277346 4.278502,-0.290736 8.45369,3.29158 8.618594,7.613303 0.352471,2.909245 -0.650668,6.00721 -3.040622,7.812473 -2.18368,1.672703 -5.346152,2.558566 -7.992783,1.519759 z m 3.462406,-6.205898 c 2.789047,-1.135036 1.015804,-5.427819 -1.922961,-4.22962 -2.938765,1.198199 -0.866086,5.364656 1.922961,4.22962 z m 16.970415,6.594616 c -4.055434,-0.645147 -7.479734,-4.181265 -7.713393,-8.317655 -0.171228,-4.435422 3.558481,-9.175376 8.236982,-8.888261 2.789865,-0.303592 5.699628,0.734865 7.37815,3.042336 1.77472,2.330533 2.141189,5.595681 1.361123,8.362352 -1.369734,3.675012 -5.340251,6.229816 -9.262862,5.801228 z m 2.878581,-7.257728 c 1.882507,-2.543555 -1.734915,-5.58634 -3.626928,-2.934587 -1.892013,2.651752 1.744421,5.478142 3.626928,2.934587 z"
         style="fill:#333333;fill-opacity:1;stroke-width:0.26458332" />
      <path
         id="path896"
         d="M 77.957585,57.420213 72.79821,55.128995 c -0.04853,-2.646936 -0.09707,-5.293871 -0.1456,-7.940807 3.495445,-1.512057 6.828571,-3.174825 10.400428,-4.504671 0.133603,5.675521 0.08347,11.352055 0.06393,17.027916 z M 44.170251,38.687659 c -3.688727,-1.061293 -6.134497,-4.962804 -5.625721,-8.746569 0.373327,-4.37441 4.698405,-7.910312 9.073956,-7.292274 5.224865,0.345863 8.800262,6.497928 6.746108,11.260739 -1.521543,3.917254 -6.201302,6.179613 -10.194343,4.778104 z m 4.214797,-5.600568 c 2.485689,-1.501663 0.449984,-5.864861 -2.302592,-4.978129 -2.291514,0.407348 -3.022436,3.93318 -0.866215,5.028188 0.943613,0.600464 2.272252,0.695755 3.168807,-0.05006 z m 15.007373,5.731923 c -5.219707,-1.222892 -7.766711,-8.23948 -4.588795,-12.552423 2.461848,-3.828496 8.256342,-4.880784 11.822825,-1.976902 3.760093,2.72811 4.457925,8.75787 1.173783,12.130768 -2.085958,2.246374 -5.454109,3.16726 -8.407813,2.398557 z m 3.536204,-5.507274 c 2.942285,-1.219079 1.055623,-6.27025 -1.999657,-5.141337 -2.405327,0.647853 -2.745512,4.307112 -0.361951,5.200738 0.742761,0.332614 1.641615,0.33749 2.361608,-0.0594 z"
         style="fill:#5b5b5b;fill-opacity:1;stroke-width:0.26458332" />
    </g>
  </g>
</svg>
